<svg width="24" height="24" viewBox="0 0 24 24" fill="none" xmlns="http://www.w3.org/2000/svg">
<path fill-rule="evenodd" clip-rule="evenodd" d="M21.7286 4.5856L13.5857 12.7285L13.2857 13.037L12.9857 12.7285L9.00002 8.75131L2.01431 15.7285L1.41431 15.1285L8.70002 7.84274L9.00002 7.53417L9.30002 7.84274L13.2857 11.8199L21.1286 3.9856L21.7286 4.5856ZM1.71431 17.9999H2.57145V18.857H1.71431V17.9999ZM3.42859 17.1427H2.57145V17.9999H3.42859V18.857H4.28573V17.9999H5.14288V18.857H6.00002V17.9999H6.85716V18.857H7.71431V17.9999H8.57145V18.857H9.42859V17.9999H10.2857V18.857H11.1429V17.9999H12V18.857H12.8572V17.9999H13.7143V18.857H14.5714V17.9999H15.4286V18.857H16.2857V17.9999H17.1429V18.857H18V17.9999H18.8572V18.857H19.7143V17.9999H20.5714V18.857H21.4286V17.9999H20.5714V17.1427H21.4286V16.2856H20.5714V15.4285H21.4286V14.5713H20.5714V13.7142H21.4286V12.857H20.5714V11.9999H21.4286V11.1427H20.5714V10.2856H21.4286V9.42845H20.5714V8.57131H21.4286V7.71417H20.5714V8.57131H19.7143V9.42845H18.8572V10.2856H18V11.1427H17.1429V11.9999H16.2857V12.857H15.4286V13.7142H14.5714V14.5713H13.7143V15.4285H12.8572V14.5713H12V13.7142H11.1429V12.857H10.2857V11.9999H9.42859V11.1427H8.57145V11.9999H7.71431V12.857H6.85716V13.7142H6.00002V14.5713H5.14288V15.4285H4.28573V16.2856H3.42859V17.1427ZM4.28573 17.1427V17.9999H3.42859V17.1427H4.28573ZM5.14288 17.1427H4.28573V16.2856H5.14288V17.1427ZM6.00002 17.1427V17.9999H5.14288V17.1427H6.00002ZM6.00002 16.2856H5.14288V15.4285H6.00002V16.2856ZM6.85716 16.2856H6.00002V17.1427H6.85716V17.9999H7.71431V17.1427H8.57145V17.9999H9.42859V17.1427H10.2857V17.9999H11.1429V17.1427H12V17.9999H12.8572V17.1427H13.7143V17.9999H14.5714V17.1427H15.4286V17.9999H16.2857V17.1427H17.1429V17.9999H18V17.1427H18.8572V17.9999H19.7143V17.1427H20.5714V16.2856H19.7143V15.4285H20.5714V14.5713H19.7143V13.7142H20.5714V12.857H19.7143V11.9999H20.5714V11.1427H19.7143V10.2856H20.5714V9.42845H19.7143V10.2856H18.8572V11.1427H18V11.9999H17.1429V12.857H16.2857V13.7142H15.4286V14.5713H14.5714V15.4285H13.7143V16.2856H12.8572V15.4285H12V14.5713H11.1429V13.7142H10.2857V12.857H9.42859V11.9999H8.57145V12.857H7.71431V13.7142H6.85716V14.5713H6.00002V15.4285H6.85716V16.2856ZM7.71431 16.2856V17.1427H6.85716V16.2856H7.71431ZM7.71431 15.4285H6.85716V14.5713H7.71431V15.4285ZM8.57145 15.4285H7.71431V16.2856H8.57145V17.1427H9.42859V16.2856H10.2857V17.1427H11.1429V16.2856H12V17.1427H12.8572V16.2856H12V15.4285H11.1429V14.5713H10.2857V13.7142H9.42859V12.857H8.57145V13.7142H7.71431V14.5713H8.57145V15.4285ZM9.42859 15.4285V16.2856H8.57145V15.4285H9.42859ZM9.42859 14.5713V13.7142H8.57145V14.5713H9.42859ZM9.42859 14.5713V15.4285H10.2857V16.2856H11.1429V15.4285H10.2857V14.5713H9.42859ZM14.5714 16.2856V15.4285H15.4286V16.2856H14.5714ZM16.2857 16.2856V17.1427H15.4286V16.2856H16.2857ZM16.2857 15.4285H15.4286V14.5713H16.2857V15.4285ZM17.1429 15.4285H16.2857V16.2856H17.1429V17.1427H18V16.2856H18.8572V17.1427H19.7143V16.2856H18.8572V15.4285H19.7143V14.5713H18.8572V13.7142H19.7143V12.857H18.8572V11.9999H19.7143V11.1427H18.8572V11.9999H18V12.857H17.1429V13.7142H16.2857V14.5713H17.1429V15.4285ZM18 15.4285H17.1429V16.2856H18V15.4285ZM18 14.5713H18.8572V15.4285H18V14.5713ZM18 13.7142H18.8572V12.857H18V13.7142ZM18 13.7142V14.5713H17.1429V13.7142H18ZM14.5714 16.2856V17.1427H13.7143V16.2856H14.5714Z" fill="#414651"/>
</svg>
