<svg width="24" height="24" viewBox="0 0 24 24" fill="none" xmlns="http://www.w3.org/2000/svg">
<path d="M8.99148 6.47144L8.63148 7.07144L6.83148 10.0714L7.56862 10.5L9.00862 8.10001L10.5515 10.5171L11.2715 10.0543L9.36005 7.05429L8.99148 6.47144ZM19.5515 10.5171L18.8315 10.0543L21.0686 6.62572L21.7886 7.08858L19.5515 10.5171ZM15.0086 15.9171L16.0372 14.34L16.7572 14.8029L15.3601 16.9457L14.9915 17.5029L14.6401 16.9457L13.2686 14.8029L13.9972 14.34L15.0001 15.9257L15.0086 15.9171ZM4.25148 14.3571L4.98862 14.8029L2.93148 18.2314L2.19434 17.7857L4.25148 14.3571ZM2.57148 12V12.8571H3.42862V12H2.57148ZM4.28576 12H5.14291V12.8571H4.28576V12ZM6.00005 12V12.8571H6.85719V12H6.00005ZM7.71434 12H8.57148V12.8571H7.71434V12ZM9.42862 12V12.8571H10.2858V12H9.42862ZM11.1429 12H12.0001V12.8571H11.1429V12ZM12.8572 12V12.8571H13.7143V12H12.8572ZM14.5715 12H15.4286V12.8571H14.5715V12ZM16.2858 12V12.8571H17.1429V12H16.2858ZM18.0001 12H18.8572V12.8571H18.0001V12ZM19.7143 12V12.8571H20.5715V12H19.7143ZM21.4286 12H22.2858V12.8571H21.4286V12Z" fill="#414651"/>
</svg>
