<svg width="28" height="28" viewBox="0 0 28 28" fill="none" xmlns="http://www.w3.org/2000/svg">
<path d="M17 11V17H20V11H17ZM16.5 10H20.5C20.6326 10 20.7598 10.0527 20.8536 10.1464C20.9473 10.2402 21 10.3674 21 10.5V17.5C21 17.6326 20.9473 17.7598 20.8536 17.8536C20.7598 17.9473 20.6326 18 20.5 18H16.5C16.3674 18 16.2402 17.9473 16.1464 17.8536C16.0527 17.7598 16 17.6326 16 17.5V10.5C16 10.3674 16.0527 10.2402 16.1464 10.1464C16.2402 10.0527 16.3674 10 16.5 10Z" fill="#414651"/>
<path d="M18 7H19V10.5H18V7ZM18 17.5H19V21H18V17.5Z" fill="#414651"/>
<path d="M9 8V20H12V8H9ZM8.5 7H12.5C12.6326 7 12.7598 7.05268 12.8536 7.14645C12.9473 7.24021 13 7.36739 13 7.5V20.5C13 20.6326 12.9473 20.7598 12.8536 20.8536C12.7598 20.9473 12.6326 21 12.5 21H8.5C8.36739 21 8.24021 20.9473 8.14645 20.8536C8.05268 20.7598 8 20.6326 8 20.5V7.5C8 7.36739 8.05268 7.24021 8.14645 7.14645C8.24021 7.05268 8.36739 7 8.5 7Z" fill="#414651"/>
<path d="M10 4H11V7.5H10V4ZM10 20.5H11V24H10V20.5Z" fill="#414651"/>
</svg>
