<svg width="343" height="280" viewBox="0 0 343 280" fill="none" xmlns="http://www.w3.org/2000/svg">
<path d="M0 36C0 16.1178 16.1178 0 36 0H307C326.882 0 343 16.1178 343 36V244C343 263.882 326.882 280 307 280H36C16.1178 280 0 263.882 0 244V36Z" fill="#F5FAFF"/>
<g clip-path="url(#clip0_10991_32758)">
<path d="M19 42C19 33.1634 26.1634 26 35 26H309C317.837 26 325 33.1634 325 42V117C325 125.837 317.837 133 309 133H35C26.1634 133 19 125.837 19 117V42Z" fill="white"/>
<path d="M40.5805 129.186C32.1696 135.252 22.689 131.714 19 129.186V137H325V74C319.835 76.5276 304.305 81.8355 283.499 82.8466C257.492 84.1104 263.025 97.5911 251.405 101.382C239.785 105.174 237.571 96.7486 229.271 103.91C220.971 111.072 208.244 102.225 195.517 101.382C182.79 100.54 187.217 114.442 173.937 108.965C160.656 103.489 161.763 117.391 147.376 108.965C132.989 100.54 123.029 103.91 109.749 114.442C96.4684 124.973 95.3617 123.288 76.5479 117.391C57.7342 111.493 51.094 121.603 40.5805 129.186Z" fill="url(#paint0_linear_10991_32758)"/>
<path d="M19 129.624C22.689 132.172 32.1696 135.738 40.5805 129.624C51.094 121.981 57.7342 111.79 76.5479 117.735C95.3617 123.679 96.4684 125.378 109.749 114.763C123.029 104.147 132.989 100.751 147.376 109.243C161.763 117.735 160.656 103.723 173.937 109.243C187.217 114.763 182.79 100.751 195.517 101.6C208.244 102.449 220.971 111.366 229.271 104.147C237.571 96.9291 239.785 105.421 251.405 101.6C263.025 97.7783 257.492 84.1906 283.499 82.9168C304.305 81.8977 319.835 76.5477 325 74" stroke="#12B76A" stroke-width="3" stroke-linecap="round"/>
<path d="M32.3658 50V40.1357H34.1295V48.5166H38.648V50H32.3658ZM42.9623 50.1504C42.2195 50.1504 41.5792 49.9954 41.0414 49.6855C40.5036 49.3711 40.0889 48.9245 39.7973 48.3457C39.5102 47.7669 39.3666 47.0742 39.3666 46.2676V46.2539C39.3666 45.4564 39.5124 44.7682 39.8041 44.1895C40.0958 43.6061 40.5082 43.1595 41.0414 42.8496C41.5792 42.5397 42.2195 42.3848 42.9623 42.3848C43.7051 42.3848 44.3432 42.5397 44.8764 42.8496C45.4141 43.1595 45.8288 43.6038 46.1205 44.1826C46.4122 44.7614 46.558 45.4518 46.558 46.2539V46.2676C46.558 47.0742 46.4122 47.7669 46.1205 48.3457C45.8334 48.9245 45.421 49.3711 44.8832 49.6855C44.35 49.9954 43.7097 50.1504 42.9623 50.1504ZM42.9623 48.7695C43.3542 48.7695 43.6869 48.6715 43.9604 48.4756C44.2383 48.2751 44.4503 47.9902 44.5961 47.6211C44.7419 47.2474 44.8148 46.7985 44.8148 46.2744V46.2607C44.8148 45.7321 44.7419 45.2832 44.5961 44.9141C44.4503 44.5404 44.2383 44.2555 43.9604 44.0596C43.6869 43.859 43.3542 43.7588 42.9623 43.7588C42.5704 43.7588 42.2354 43.859 41.9574 44.0596C41.6794 44.2555 41.4675 44.5404 41.3217 44.9141C41.1758 45.2832 41.1029 45.7321 41.1029 46.2607V46.2744C41.1029 46.7985 41.1758 47.2474 41.3217 47.6211C41.4675 47.9948 41.6771 48.2796 41.9506 48.4756C42.2286 48.6715 42.5658 48.7695 42.9623 48.7695ZM47.967 50V42.5283H49.6691V43.6768H49.7854C49.9631 43.2712 50.232 42.9544 50.592 42.7266C50.952 42.4987 51.4009 42.3848 51.9387 42.3848C52.7727 42.3848 53.4107 42.6263 53.8527 43.1094C54.2948 43.5924 54.5158 44.2783 54.5158 45.167V50H52.8137V45.5635C52.8137 44.9801 52.6906 44.5426 52.4445 44.251C52.203 43.9593 51.8247 43.8135 51.3098 43.8135C50.9725 43.8135 50.6809 43.8887 50.4348 44.0391C50.1887 44.1895 49.9995 44.4014 49.8674 44.6748C49.7352 44.9482 49.6691 45.2718 49.6691 45.6455V50H47.967ZM59.4385 52.625C58.7822 52.625 58.2148 52.5384 57.7363 52.3652C57.2624 52.1921 56.8887 51.946 56.6152 51.627C56.3418 51.3125 56.1755 50.9456 56.1162 50.5264L56.123 50.5059H57.8184L57.832 50.5264C57.8867 50.7633 58.0531 50.957 58.3311 51.1074C58.6136 51.2624 58.9919 51.3398 59.4658 51.3398C60.0492 51.3398 60.5003 51.21 60.8193 50.9502C61.1429 50.6904 61.3047 50.3213 61.3047 49.8428V48.4072H61.1885C61.0472 48.6761 60.8626 48.904 60.6348 49.0908C60.4115 49.2777 60.154 49.4189 59.8623 49.5146C59.5752 49.6058 59.2585 49.6514 58.9121 49.6514C58.2832 49.6514 57.7386 49.501 57.2783 49.2002C56.818 48.8949 56.4626 48.4733 56.2119 47.9355C55.9658 47.3978 55.8428 46.7757 55.8428 46.0693V46.0557C55.8428 45.3356 55.9681 44.7021 56.2188 44.1553C56.4694 43.6084 56.8249 43.18 57.2852 42.8701C57.75 42.5602 58.3037 42.4053 58.9463 42.4053C59.2926 42.4053 59.6094 42.46 59.8965 42.5693C60.1882 42.6787 60.4434 42.8337 60.6621 43.0342C60.8854 43.2347 61.0677 43.4762 61.209 43.7588H61.2979V42.5283H63V49.8154C63 50.3896 62.8542 50.8864 62.5625 51.3057C62.2754 51.7295 61.8652 52.0553 61.332 52.2832C60.7988 52.5111 60.1676 52.625 59.4385 52.625ZM59.4385 48.2979C59.8304 48.2979 60.1676 48.2044 60.4502 48.0176C60.7327 47.8262 60.9492 47.5641 61.0996 47.2314C61.2546 46.8988 61.332 46.5114 61.332 46.0693V46.0557C61.332 45.6136 61.2546 45.2262 61.0996 44.8936C60.9492 44.5563 60.7327 44.2943 60.4502 44.1074C60.1676 43.916 59.8304 43.8203 59.4385 43.8203C59.042 43.8203 58.7048 43.916 58.4268 44.1074C58.1533 44.2943 57.9437 44.5563 57.7979 44.8936C57.6566 45.2262 57.5859 45.6136 57.5859 46.0557V46.0693C57.5859 46.5068 57.6566 46.8942 57.7979 47.2314C57.9437 47.5641 58.1533 47.8262 58.4268 48.0176C58.7048 48.2044 59.042 48.2979 59.4385 48.2979ZM68.2174 52.4814V42.5283H69.9195V43.6973H70.0357C70.1725 43.4284 70.3502 43.1982 70.5689 43.0068C70.7923 42.8154 71.0497 42.6673 71.3414 42.5625C71.6331 42.4577 71.9544 42.4053 72.3053 42.4053C72.9296 42.4053 73.4697 42.5625 73.9254 42.877C74.3857 43.1914 74.7411 43.638 74.9918 44.2168C75.247 44.791 75.3746 45.4723 75.3746 46.2607V46.2744C75.3746 47.0674 75.2493 47.751 74.9986 48.3252C74.748 48.8994 74.3925 49.3438 73.9322 49.6582C73.4765 49.9681 72.9342 50.123 72.3053 50.123C71.9635 50.123 71.6445 50.0706 71.3482 49.9658C71.052 49.8564 70.7923 49.7038 70.5689 49.5078C70.3456 49.3118 70.1679 49.0794 70.0357 48.8105H69.9195V52.4814H68.2174ZM71.7721 48.6875C72.1594 48.6875 72.4921 48.5918 72.7701 48.4004C73.0481 48.2044 73.2623 47.9264 73.4127 47.5664C73.5631 47.2018 73.6383 46.7712 73.6383 46.2744V46.2607C73.6383 45.7549 73.5631 45.3219 73.4127 44.9619C73.2623 44.6019 73.0481 44.3262 72.7701 44.1348C72.4921 43.9388 72.1594 43.8408 71.7721 43.8408C71.3847 43.8408 71.0497 43.9388 70.7672 44.1348C70.4892 44.3262 70.2727 44.6019 70.1178 44.9619C69.9674 45.3219 69.8922 45.7526 69.8922 46.2539V46.2676C69.8922 46.7689 69.9674 47.2018 70.1178 47.5664C70.2727 47.9264 70.4915 48.2044 70.774 48.4004C71.0566 48.5918 71.3893 48.6875 71.7721 48.6875ZM76.7904 50V42.5283H78.4926V43.6768H78.6088C78.7364 43.2757 78.9643 42.9635 79.2924 42.7402C79.6251 42.5169 80.0375 42.4053 80.5297 42.4053C80.6573 42.4053 80.7826 42.4144 80.9057 42.4326C81.0333 42.4463 81.1381 42.4645 81.2201 42.4873V44.0117C81.0834 43.9798 80.9444 43.957 80.8031 43.9434C80.6664 43.9251 80.5229 43.916 80.3725 43.916C79.9942 43.916 79.6638 43.9867 79.3813 44.1279C79.0987 44.2692 78.88 44.472 78.725 44.7363C78.5701 44.9961 78.4926 45.3037 78.4926 45.6592V50H76.7904ZM85.3498 50.1504C84.607 50.1504 83.9667 49.9954 83.4289 49.6855C82.8911 49.3711 82.4764 48.9245 82.1848 48.3457C81.8977 47.7669 81.7541 47.0742 81.7541 46.2676V46.2539C81.7541 45.4564 81.8999 44.7682 82.1916 44.1895C82.4833 43.6061 82.8957 43.1595 83.4289 42.8496C83.9667 42.5397 84.607 42.3848 85.3498 42.3848C86.0926 42.3848 86.7307 42.5397 87.2639 42.8496C87.8016 43.1595 88.2163 43.6038 88.508 44.1826C88.7997 44.7614 88.9455 45.4518 88.9455 46.2539V46.2676C88.9455 47.0742 88.7997 47.7669 88.508 48.3457C88.2209 48.9245 87.8085 49.3711 87.2707 49.6855C86.7375 49.9954 86.0972 50.1504 85.3498 50.1504ZM85.3498 48.7695C85.7417 48.7695 86.0744 48.6715 86.3479 48.4756C86.6258 48.2751 86.8378 47.9902 86.9836 47.6211C87.1294 47.2474 87.2023 46.7985 87.2023 46.2744V46.2607C87.2023 45.7321 87.1294 45.2832 86.9836 44.9141C86.8378 44.5404 86.6258 44.2555 86.3479 44.0596C86.0744 43.859 85.7417 43.7588 85.3498 43.7588C84.9579 43.7588 84.6229 43.859 84.3449 44.0596C84.0669 44.2555 83.855 44.5404 83.7092 44.9141C83.5633 45.2832 83.4904 45.7321 83.4904 46.2607V46.2744C83.4904 46.7985 83.5633 47.2474 83.7092 47.6211C83.855 47.9948 84.0647 48.2796 84.3381 48.4756C84.6161 48.6715 84.9533 48.7695 85.3498 48.7695ZM90.9014 50V43.8477H89.6777V42.5283H90.9014V41.79C90.9014 41.2887 90.9857 40.874 91.1543 40.5459C91.3275 40.2178 91.5941 39.974 91.9541 39.8145C92.3141 39.6504 92.7699 39.5684 93.3213 39.5684C93.5036 39.5684 93.6722 39.5752 93.8271 39.5889C93.9821 39.598 94.1257 39.6139 94.2578 39.6367V40.8262C94.194 40.8171 94.112 40.8102 94.0117 40.8057C93.9115 40.7965 93.8021 40.792 93.6836 40.792C93.2826 40.792 92.9977 40.8854 92.8291 41.0723C92.6605 41.2546 92.5762 41.5257 92.5762 41.8857V42.5283H94.1963V43.8477H92.6035V50H90.9014ZM95.5574 50V42.5283H97.2527V50H95.5574ZM96.4119 41.2773C96.1339 41.2773 95.8947 41.1794 95.6941 40.9834C95.4936 40.7874 95.3934 40.5527 95.3934 40.2793C95.3934 39.9967 95.4936 39.7598 95.6941 39.5684C95.8947 39.3724 96.1339 39.2744 96.4119 39.2744C96.6899 39.2744 96.9269 39.3724 97.1229 39.5684C97.3234 39.7598 97.4236 39.9967 97.4236 40.2793C97.4236 40.5527 97.3234 40.7874 97.1229 40.9834C96.9269 41.1794 96.6899 41.2773 96.4119 41.2773ZM101.991 50.0342C101.134 50.0342 100.517 49.877 100.138 49.5625C99.76 49.248 99.5709 48.7331 99.5709 48.0176V43.8477H98.4088V42.5283H99.5709V40.6963H101.3V42.5283H102.873V43.8477H101.3V47.6143C101.3 47.9834 101.378 48.2546 101.533 48.4277C101.692 48.5964 101.948 48.6807 102.298 48.6807C102.421 48.6807 102.522 48.6784 102.599 48.6738C102.681 48.6647 102.772 48.6556 102.873 48.6465V49.959C102.754 49.9818 102.617 50 102.463 50.0137C102.312 50.0273 102.155 50.0342 101.991 50.0342ZM107.002 50.1504C106.369 50.1504 105.822 50.0615 105.362 49.8838C104.906 49.7015 104.546 49.4508 104.282 49.1318C104.017 48.8083 103.86 48.4346 103.81 48.0107V47.9971H105.498L105.505 48.0107C105.596 48.2705 105.767 48.4824 106.018 48.6465C106.269 48.8105 106.606 48.8926 107.03 48.8926C107.312 48.8926 107.561 48.8538 107.775 48.7764C107.989 48.6943 108.158 48.5827 108.281 48.4414C108.404 48.3001 108.465 48.1361 108.465 47.9492V47.9355C108.465 47.7168 108.376 47.5345 108.199 47.3887C108.021 47.2383 107.727 47.1175 107.317 47.0264L106.107 46.7529C105.633 46.6481 105.241 46.5023 104.931 46.3154C104.621 46.1286 104.389 45.8984 104.234 45.625C104.083 45.3516 104.008 45.0326 104.008 44.668V44.6611C104.008 44.21 104.134 43.8135 104.384 43.4717C104.639 43.1299 104.993 42.8633 105.444 42.6719C105.895 42.4805 106.414 42.3848 107.002 42.3848C107.608 42.3848 108.13 42.4759 108.568 42.6582C109.005 42.8405 109.347 43.0911 109.593 43.4102C109.839 43.7292 109.981 44.0915 110.017 44.4971V44.5107H108.417L108.411 44.4902C108.347 44.2533 108.194 44.0527 107.953 43.8887C107.716 43.7201 107.397 43.6357 106.996 43.6357C106.745 43.6357 106.519 43.6745 106.319 43.752C106.123 43.8294 105.968 43.9388 105.854 44.0801C105.745 44.2168 105.69 44.3786 105.69 44.5654V44.5723C105.69 44.7181 105.726 44.8457 105.799 44.9551C105.877 45.0645 105.997 45.1602 106.162 45.2422C106.326 45.3242 106.542 45.3971 106.811 45.4609L108.021 45.7275C108.755 45.8916 109.297 46.1354 109.648 46.459C109.999 46.7826 110.174 47.2178 110.174 47.7646V47.7783C110.174 48.2523 110.037 48.667 109.764 49.0225C109.491 49.3779 109.115 49.6559 108.636 49.8564C108.158 50.0524 107.613 50.1504 107.002 50.1504Z" fill="#101828"/>
<path d="M228.255 46.7393V45.3174H230.88C231.513 45.3174 232.006 45.1556 232.356 44.832C232.707 44.5039 232.883 44.0436 232.883 43.4512V43.4375C232.883 42.8405 232.707 42.3802 232.356 42.0566C232.006 41.7331 231.513 41.5713 230.88 41.5713H228.255V40.1357H231.311C231.98 40.1357 232.566 40.2725 233.067 40.5459C233.569 40.8193 233.961 41.2044 234.243 41.7012C234.526 42.1934 234.667 42.7699 234.667 43.4307V43.4443C234.667 44.1006 234.526 44.6771 234.243 45.1738C233.961 45.666 233.569 46.0511 233.067 46.3291C232.566 46.6025 231.98 46.7393 231.311 46.7393H228.255ZM227.373 50V40.1357H229.137V50H227.373ZM242.803 50L237.908 44.6475C237.566 44.2692 237.293 43.9434 237.088 43.6699C236.887 43.3919 236.744 43.139 236.657 42.9111C236.575 42.6833 236.534 42.4531 236.534 42.2207V42.207C236.534 41.7695 236.65 41.3799 236.883 41.0381C237.12 40.6963 237.441 40.4297 237.846 40.2383C238.257 40.0469 238.719 39.9512 239.234 39.9512C239.754 39.9512 240.214 40.0469 240.615 40.2383C241.016 40.4297 241.331 40.694 241.558 41.0312C241.791 41.3685 241.907 41.7536 241.907 42.1865V42.2002C241.907 42.5374 241.832 42.8542 241.681 43.1504C241.536 43.4466 241.299 43.736 240.971 44.0186C240.642 44.2965 240.209 44.5768 239.672 44.8594L238.845 44.0117C239.241 43.8066 239.553 43.6152 239.781 43.4375C240.013 43.2552 240.18 43.0729 240.28 42.8906C240.38 42.7038 240.43 42.5033 240.43 42.2891V42.2754C240.43 42.0566 240.38 41.863 240.28 41.6943C240.18 41.5257 240.041 41.3936 239.863 41.2979C239.685 41.2021 239.478 41.1543 239.241 41.1543C239.013 41.1543 238.81 41.2021 238.633 41.2979C238.455 41.3936 238.314 41.5257 238.209 41.6943C238.109 41.8584 238.058 42.0521 238.058 42.2754V42.2891C238.058 42.4486 238.09 42.6058 238.154 42.7607C238.218 42.9111 238.33 43.0866 238.489 43.2871C238.649 43.4876 238.867 43.736 239.145 44.0322L244.785 49.9932V50H242.803ZM238.879 50.1846C238.195 50.1846 237.596 50.0684 237.081 49.8359C236.57 49.6035 236.174 49.2799 235.891 48.8652C235.609 48.446 235.468 47.9583 235.468 47.4023V47.3887C235.468 46.8099 235.623 46.3018 235.932 45.8643C236.242 45.4268 236.721 45.0417 237.368 44.709L237.949 44.4014L238.797 45.3379L238.311 45.584C237.919 45.7799 237.619 46.0215 237.409 46.3086C237.204 46.5911 237.101 46.9079 237.101 47.2588V47.2725C237.101 47.5915 237.183 47.874 237.347 48.1201C237.512 48.3617 237.739 48.5508 238.031 48.6875C238.323 48.8197 238.662 48.8857 239.05 48.8857C239.423 48.8857 239.765 48.8356 240.075 48.7354C240.385 48.6305 240.661 48.4847 240.902 48.2979C241.148 48.111 241.362 47.8923 241.545 47.6416C241.814 47.2633 242.014 46.8304 242.146 46.3428C242.278 45.8551 242.345 45.3311 242.345 44.7705V44.5107H243.828V44.8594C243.828 45.6341 243.719 46.3496 243.5 47.0059C243.286 47.6576 242.957 48.2249 242.515 48.708C242.101 49.1683 241.59 49.5306 240.984 49.7949C240.378 50.0547 239.676 50.1846 238.879 50.1846ZM245.886 50V40.1357H247.65V48.5166H252.169V50H245.886ZM256.819 46.7939V45.249H264.352V46.7939H256.819ZM259.813 49.7539V42.2891H261.358V49.7539H259.813ZM268.331 50V41.8721H268.208L265.754 43.6016V41.9473L268.331 40.1357H270.088V50H268.331ZM276.091 50.2461C275.421 50.2461 274.831 50.1208 274.32 49.8701C273.81 49.6195 273.404 49.2799 273.103 48.8516C272.803 48.4186 272.629 47.9333 272.584 47.3955L272.577 47.3066H274.197L274.211 47.3545C274.256 47.6234 274.363 47.8672 274.532 48.0859C274.701 48.3047 274.919 48.4801 275.188 48.6123C275.457 48.7399 275.76 48.8037 276.097 48.8037C276.48 48.8037 276.818 48.7194 277.109 48.5508C277.405 48.3822 277.636 48.1497 277.8 47.8535C277.964 47.5527 278.046 47.2109 278.046 46.8281V46.8145C278.046 46.4316 277.961 46.0944 277.793 45.8027C277.629 45.5065 277.401 45.2764 277.109 45.1123C276.822 44.9437 276.489 44.8594 276.111 44.8594C275.833 44.8594 275.576 44.9004 275.339 44.9824C275.106 45.0645 274.899 45.1875 274.717 45.3516C274.625 45.429 274.541 45.5156 274.464 45.6113C274.386 45.7025 274.318 45.8027 274.259 45.9121H272.748L273.226 40.1357H279.146V41.5781H274.6L274.32 44.5859H274.443C274.58 44.3626 274.753 44.1735 274.963 44.0186C275.172 43.859 275.412 43.7383 275.68 43.6562C275.949 43.5697 276.236 43.5264 276.542 43.5264C277.162 43.5264 277.708 43.6676 278.182 43.9502C278.661 44.2282 279.037 44.6133 279.31 45.1055C279.584 45.5931 279.721 46.1514 279.721 46.7803V46.7939C279.721 47.4775 279.566 48.0791 279.256 48.5986C278.95 49.1136 278.524 49.5169 277.977 49.8086C277.43 50.1003 276.802 50.2461 276.091 50.2461ZM282.046 50.1299C281.736 50.1299 281.476 50.0273 281.266 49.8223C281.061 49.6126 280.959 49.3574 280.959 49.0566C280.959 48.7513 281.061 48.4961 281.266 48.291C281.476 48.0814 281.736 47.9766 282.046 47.9766C282.36 47.9766 282.62 48.0814 282.825 48.291C283.03 48.4961 283.132 48.7513 283.132 49.0566C283.132 49.3574 283.03 49.6126 282.825 49.8223C282.62 50.0273 282.36 50.1299 282.046 50.1299ZM288.205 50.2461C287.536 50.2461 286.945 50.1208 286.435 49.8701C285.925 49.6195 285.519 49.2799 285.218 48.8516C284.917 48.4186 284.744 47.9333 284.699 47.3955L284.692 47.3066H286.312L286.326 47.3545C286.371 47.6234 286.478 47.8672 286.647 48.0859C286.815 48.3047 287.034 48.4801 287.303 48.6123C287.572 48.7399 287.875 48.8037 288.212 48.8037C288.595 48.8037 288.932 48.7194 289.224 48.5508C289.52 48.3822 289.75 48.1497 289.914 47.8535C290.079 47.5527 290.161 47.2109 290.161 46.8281V46.8145C290.161 46.4316 290.076 46.0944 289.908 45.8027C289.744 45.5065 289.516 45.2764 289.224 45.1123C288.937 44.9437 288.604 44.8594 288.226 44.8594C287.948 44.8594 287.69 44.9004 287.454 44.9824C287.221 45.0645 287.014 45.1875 286.831 45.3516C286.74 45.429 286.656 45.5156 286.579 45.6113C286.501 45.7025 286.433 45.8027 286.373 45.9121H284.863L285.341 40.1357H291.261V41.5781H286.715L286.435 44.5859H286.558C286.695 44.3626 286.868 44.1735 287.078 44.0186C287.287 43.859 287.526 43.7383 287.795 43.6562C288.064 43.5697 288.351 43.5264 288.657 43.5264C289.276 43.5264 289.823 43.6676 290.297 43.9502C290.776 44.2282 291.152 44.6133 291.425 45.1055C291.699 45.5931 291.835 46.1514 291.835 46.7803V46.7939C291.835 47.4775 291.68 48.0791 291.371 48.5986C291.065 49.1136 290.639 49.5169 290.092 49.8086C289.545 50.1003 288.916 50.2461 288.205 50.2461ZM295.746 50V41.8721H295.623L293.169 43.6016V41.9473L295.746 40.1357H297.503V50H295.746ZM302.022 45.4609C301.562 45.4609 301.166 45.3516 300.833 45.1328C300.505 44.9095 300.252 44.5928 300.074 44.1826C299.896 43.7725 299.808 43.2871 299.808 42.7266V42.7197C299.808 42.1592 299.896 41.6761 300.074 41.2705C300.252 40.8604 300.505 40.5459 300.833 40.3271C301.166 40.1084 301.562 39.999 302.022 39.999C302.483 39.999 302.877 40.1084 303.205 40.3271C303.538 40.5459 303.793 40.8604 303.971 41.2705C304.148 41.6761 304.237 42.1592 304.237 42.7197V42.7266C304.237 43.2871 304.148 43.7725 303.971 44.1826C303.793 44.5928 303.538 44.9095 303.205 45.1328C302.877 45.3516 302.483 45.4609 302.022 45.4609ZM302.022 44.4697C302.332 44.4697 302.574 44.3193 302.747 44.0186C302.92 43.7132 303.007 43.2826 303.007 42.7266V42.7197C303.007 42.1683 302.92 41.7422 302.747 41.4414C302.574 41.1406 302.332 40.9902 302.022 40.9902C301.708 40.9902 301.464 41.1406 301.291 41.4414C301.122 41.7422 301.038 42.1683 301.038 42.7197V42.7266C301.038 43.2826 301.122 43.7132 301.291 44.0186C301.464 44.3193 301.708 44.4697 302.022 44.4697ZM303.253 50H301.845L308.51 40.1357H309.918L303.253 50ZM309.733 50.1367C309.278 50.1367 308.883 50.0273 308.551 49.8086C308.218 49.5853 307.963 49.2708 307.785 48.8652C307.607 48.4551 307.519 47.9697 307.519 47.4092V47.4023C307.519 46.8372 307.607 46.3519 307.785 45.9463C307.963 45.5361 308.218 45.2217 308.551 45.0029C308.883 44.7842 309.278 44.6748 309.733 44.6748C310.194 44.6748 310.59 44.7842 310.923 45.0029C311.256 45.2217 311.511 45.5361 311.688 45.9463C311.866 46.3519 311.955 46.8372 311.955 47.4023V47.4092C311.955 47.9697 311.866 48.4551 311.688 48.8652C311.511 49.2708 311.256 49.5853 310.923 49.8086C310.59 50.0273 310.194 50.1367 309.733 50.1367ZM309.733 49.1455C310.048 49.1455 310.289 48.9951 310.458 48.6943C310.631 48.389 310.718 47.9606 310.718 47.4092V47.4023C310.718 46.8464 310.631 46.418 310.458 46.1172C310.289 45.8164 310.048 45.666 309.733 45.666C309.424 45.666 309.182 45.8164 309.009 46.1172C308.84 46.418 308.756 46.8464 308.756 47.4023V47.4092C308.756 47.9606 308.84 48.389 309.009 48.6943C309.182 48.9951 309.424 49.1455 309.733 49.1455Z" fill="#12B76A"/>
</g>
<g clip-path="url(#clip1_10991_32758)">
<path d="M19 161C19 152.163 26.1634 145 35 145H309C317.837 145 325 152.163 325 161V237C325 245.837 317.837 253 309 253H35C26.1634 253 19 245.837 19 237V161Z" fill="white"/>
<path d="M32.8587 189.83C24.4326 190.85 20.1087 187.705 19 186.005V253H325V242.105C322.228 243.522 314.135 245.505 303.935 242.105C291.185 237.855 287.859 238.705 275.663 242.105C263.467 245.505 254.598 237.855 251.826 234.88C249.054 231.905 247.391 226.805 226.88 234.88C206.37 242.955 210.25 232.755 197.5 225.105C184.75 217.455 179.761 244.23 165.348 242.105C150.935 239.98 150.38 244.23 144.837 244.23C139.293 244.23 121.554 245.93 108.25 234.88C94.9456 223.83 92.7283 233.605 79.9783 232.755C67.2283 231.905 66.6739 200.03 58.3587 189.83C50.0435 179.63 43.3913 188.555 32.8587 189.83Z" fill="url(#paint1_linear_10991_32758)"/>
<path d="M19 186.021C20.1087 187.748 24.4326 190.944 32.8587 189.907C43.3913 188.612 50.0435 179.544 58.3587 189.907C66.6739 200.27 67.2283 232.655 79.9783 233.519C92.7283 234.382 94.9457 224.451 108.25 235.678C121.554 246.904 139.293 245.177 144.837 245.177C150.38 245.177 150.935 240.859 165.348 243.018C179.761 245.177 184.75 217.974 197.5 225.746C210.25 233.519 206.37 243.882 226.88 235.678C247.391 227.474 249.054 232.655 251.826 235.678C254.598 238.7 263.467 246.472 275.663 243.018C287.859 239.564 291.185 238.7 303.935 243.018C314.135 246.472 322.228 244.457 325 243.018" stroke="#F04438" stroke-width="3" stroke-linecap="round"/>
<path d="M35.883 169.246C35.1174 169.246 34.452 169.128 33.8869 168.891C33.3264 168.654 32.8843 168.323 32.5607 167.899C32.2372 167.476 32.0549 166.981 32.0139 166.416L32.007 166.32H33.716L33.7229 166.389C33.7502 166.667 33.8596 166.908 34.051 167.113C34.2469 167.318 34.5067 167.48 34.8303 167.599C35.1538 167.713 35.523 167.77 35.9377 167.77C36.3342 167.77 36.6851 167.708 36.9904 167.585C37.2958 167.462 37.535 167.293 37.7082 167.079C37.8814 166.86 37.968 166.61 37.968 166.327V166.32C37.968 165.965 37.829 165.675 37.551 165.452C37.273 165.224 36.815 165.042 36.177 164.905L35.1174 164.687C34.1057 164.472 33.3697 164.131 32.9094 163.661C32.4536 163.187 32.2258 162.583 32.2258 161.85V161.843C32.2258 161.255 32.3807 160.74 32.6906 160.298C33.0051 159.856 33.4357 159.512 33.9826 159.266C34.534 159.015 35.1652 158.89 35.8762 158.89C36.6053 158.89 37.2365 159.013 37.7697 159.259C38.3029 159.5 38.7222 159.831 39.0275 160.25C39.3329 160.669 39.5038 161.143 39.5402 161.672L39.5471 161.761H37.8654L37.8518 161.679C37.8107 161.419 37.7036 161.193 37.5305 161.002C37.3618 160.806 37.1363 160.651 36.8537 160.537C36.5712 160.423 36.2408 160.366 35.8625 160.366C35.5025 160.366 35.1812 160.423 34.8986 160.537C34.6161 160.646 34.3928 160.801 34.2287 161.002C34.0692 161.202 33.9895 161.444 33.9895 161.727V161.733C33.9895 162.08 34.1239 162.367 34.3928 162.595C34.6662 162.823 35.1105 163 35.7258 163.128L36.7854 163.354C37.4781 163.499 38.0409 163.693 38.4738 163.935C38.9068 164.176 39.2235 164.477 39.424 164.837C39.6291 165.192 39.7316 165.621 39.7316 166.122V166.129C39.7316 166.767 39.5744 167.318 39.26 167.783C38.9501 168.248 38.5057 168.608 37.927 168.863C37.3527 169.118 36.6714 169.246 35.883 169.246ZM41.3047 169V158.637H43.0068V162.677H43.123C43.3008 162.271 43.5697 161.954 43.9297 161.727C44.2897 161.499 44.7386 161.385 45.2764 161.385C45.8324 161.385 46.3018 161.494 46.6846 161.713C47.0674 161.927 47.3568 162.242 47.5527 162.656C47.7533 163.071 47.8535 163.575 47.8535 164.167V169H46.1514V164.563C46.1514 163.98 46.0283 163.543 45.7822 163.251C45.5407 162.959 45.1624 162.813 44.6475 162.813C44.3102 162.813 44.0186 162.889 43.7725 163.039C43.5264 163.189 43.3372 163.401 43.2051 163.675C43.0729 163.948 43.0068 164.272 43.0068 164.646V169H41.3047ZM52.7898 169.15C52.047 169.15 51.4067 168.995 50.8689 168.686C50.3312 168.371 49.9165 167.924 49.6248 167.346C49.3377 166.767 49.1941 166.074 49.1941 165.268V165.254C49.1941 164.456 49.34 163.768 49.6316 163.189C49.9233 162.606 50.3357 162.16 50.8689 161.85C51.4067 161.54 52.047 161.385 52.7898 161.385C53.5327 161.385 54.1707 161.54 54.7039 161.85C55.2417 162.16 55.6564 162.604 55.948 163.183C56.2397 163.761 56.3855 164.452 56.3855 165.254V165.268C56.3855 166.074 56.2397 166.767 55.948 167.346C55.6609 167.924 55.2485 168.371 54.7107 168.686C54.1775 168.995 53.5372 169.15 52.7898 169.15ZM52.7898 167.77C53.1818 167.77 53.5145 167.672 53.7879 167.476C54.0659 167.275 54.2778 166.99 54.4236 166.621C54.5695 166.247 54.6424 165.799 54.6424 165.274V165.261C54.6424 164.732 54.5695 164.283 54.4236 163.914C54.2778 163.54 54.0659 163.256 53.7879 163.06C53.5145 162.859 53.1818 162.759 52.7898 162.759C52.3979 162.759 52.063 162.859 51.785 163.06C51.507 163.256 51.2951 163.54 51.1492 163.914C51.0034 164.283 50.9305 164.732 50.9305 165.261V165.274C50.9305 165.799 51.0034 166.247 51.1492 166.621C51.2951 166.995 51.5047 167.28 51.7781 167.476C52.0561 167.672 52.3934 167.77 52.7898 167.77ZM57.7945 169V161.528H59.4967V162.677H59.6129C59.7405 162.276 59.9684 161.964 60.2965 161.74C60.6292 161.517 61.0416 161.405 61.5338 161.405C61.6614 161.405 61.7867 161.414 61.9098 161.433C62.0374 161.446 62.1422 161.465 62.2242 161.487V163.012C62.0875 162.98 61.9485 162.957 61.8072 162.943C61.6705 162.925 61.527 162.916 61.3766 162.916C60.9983 162.916 60.6679 162.987 60.3854 163.128C60.1028 163.269 59.884 163.472 59.7291 163.736C59.5742 163.996 59.4967 164.304 59.4967 164.659V169H57.7945ZM66.4086 169.034C65.5518 169.034 64.9343 168.877 64.5561 168.562C64.1778 168.248 63.9887 167.733 63.9887 167.018V162.848H62.8266V161.528H63.9887V159.696H65.7182V161.528H67.2904V162.848H65.7182V166.614C65.7182 166.983 65.7956 167.255 65.9506 167.428C66.1101 167.596 66.3653 167.681 66.7162 167.681C66.8393 167.681 66.9395 167.678 67.017 167.674C67.099 167.665 67.1902 167.656 67.2904 167.646V168.959C67.1719 168.982 67.0352 169 66.8803 169.014C66.7299 169.027 66.5727 169.034 66.4086 169.034ZM72.125 171.481V161.528H73.8271V162.697H73.9434C74.0801 162.428 74.2578 162.198 74.4766 162.007C74.6999 161.815 74.9574 161.667 75.249 161.562C75.5407 161.458 75.862 161.405 76.2129 161.405C76.8372 161.405 77.3773 161.562 77.833 161.877C78.2933 162.191 78.6488 162.638 78.8994 163.217C79.1546 163.791 79.2822 164.472 79.2822 165.261V165.274C79.2822 166.067 79.1569 166.751 78.9062 167.325C78.6556 167.899 78.3001 168.344 77.8398 168.658C77.3841 168.968 76.8418 169.123 76.2129 169.123C75.8711 169.123 75.5521 169.071 75.2559 168.966C74.9596 168.856 74.6999 168.704 74.4766 168.508C74.2533 168.312 74.0755 168.079 73.9434 167.811H73.8271V171.481H72.125ZM75.6797 167.688C76.0671 167.688 76.3997 167.592 76.6777 167.4C76.9557 167.204 77.1699 166.926 77.3203 166.566C77.4707 166.202 77.5459 165.771 77.5459 165.274V165.261C77.5459 164.755 77.4707 164.322 77.3203 163.962C77.1699 163.602 76.9557 163.326 76.6777 163.135C76.3997 162.939 76.0671 162.841 75.6797 162.841C75.2923 162.841 74.9574 162.939 74.6748 163.135C74.3968 163.326 74.1803 163.602 74.0254 163.962C73.875 164.322 73.7998 164.753 73.7998 165.254V165.268C73.7998 165.769 73.875 166.202 74.0254 166.566C74.1803 166.926 74.3991 167.204 74.6816 167.4C74.9642 167.592 75.2969 167.688 75.6797 167.688ZM80.698 169V161.528H82.4002V162.677H82.5164C82.644 162.276 82.8719 161.964 83.2 161.74C83.5327 161.517 83.9451 161.405 84.4373 161.405C84.5649 161.405 84.6902 161.414 84.8133 161.433C84.9409 161.446 85.0457 161.465 85.1277 161.487V163.012C84.991 162.98 84.852 162.957 84.7107 162.943C84.574 162.925 84.4305 162.916 84.2801 162.916C83.9018 162.916 83.5714 162.987 83.2889 163.128C83.0063 163.269 82.7876 163.472 82.6326 163.736C82.4777 163.996 82.4002 164.304 82.4002 164.659V169H80.698ZM89.2574 169.15C88.5146 169.15 87.8743 168.995 87.3365 168.686C86.7988 168.371 86.384 167.924 86.0924 167.346C85.8053 166.767 85.6617 166.074 85.6617 165.268V165.254C85.6617 164.456 85.8075 163.768 86.0992 163.189C86.3909 162.606 86.8033 162.16 87.3365 161.85C87.8743 161.54 88.5146 161.385 89.2574 161.385C90.0003 161.385 90.6383 161.54 91.1715 161.85C91.7092 162.16 92.124 162.604 92.4156 163.183C92.7073 163.761 92.8531 164.452 92.8531 165.254V165.268C92.8531 166.074 92.7073 166.767 92.4156 167.346C92.1285 167.924 91.7161 168.371 91.1783 168.686C90.6451 168.995 90.0048 169.15 89.2574 169.15ZM89.2574 167.77C89.6493 167.77 89.982 167.672 90.2555 167.476C90.5335 167.275 90.7454 166.99 90.8912 166.621C91.037 166.247 91.11 165.799 91.11 165.274V165.261C91.11 164.732 91.037 164.283 90.8912 163.914C90.7454 163.54 90.5335 163.256 90.2555 163.06C89.982 162.859 89.6493 162.759 89.2574 162.759C88.8655 162.759 88.5305 162.859 88.2525 163.06C87.9745 163.256 87.7626 163.54 87.6168 163.914C87.471 164.283 87.398 164.732 87.398 165.261V165.274C87.398 165.799 87.471 166.247 87.6168 166.621C87.7626 166.995 87.9723 167.28 88.2457 167.476C88.5237 167.672 88.8609 167.77 89.2574 167.77ZM94.809 169V162.848H93.5854V161.528H94.809V160.79C94.809 160.289 94.8933 159.874 95.0619 159.546C95.2351 159.218 95.5017 158.974 95.8617 158.814C96.2217 158.65 96.6775 158.568 97.2289 158.568C97.4112 158.568 97.5798 158.575 97.7348 158.589C97.8897 158.598 98.0333 158.614 98.1654 158.637V159.826C98.1016 159.817 98.0196 159.81 97.9193 159.806C97.8191 159.797 97.7097 159.792 97.5912 159.792C97.1902 159.792 96.9053 159.885 96.7367 160.072C96.5681 160.255 96.4838 160.526 96.4838 160.886V161.528H98.1039V162.848H96.5111V169H94.809ZM99.465 169V161.528H101.16V169H99.465ZM100.32 160.277C100.042 160.277 99.8023 160.179 99.6018 159.983C99.4012 159.787 99.301 159.553 99.301 159.279C99.301 158.997 99.4012 158.76 99.6018 158.568C99.8023 158.372 100.042 158.274 100.32 158.274C100.598 158.274 100.835 158.372 101.03 158.568C101.231 158.76 101.331 158.997 101.331 159.279C101.331 159.553 101.231 159.787 101.03 159.983C100.835 160.179 100.598 160.277 100.32 160.277ZM105.898 169.034C105.042 169.034 104.424 168.877 104.046 168.562C103.668 168.248 103.479 167.733 103.479 167.018V162.848H102.316V161.528H103.479V159.696H105.208V161.528H106.78V162.848H105.208V166.614C105.208 166.983 105.285 167.255 105.44 167.428C105.6 167.596 105.855 167.681 106.206 167.681C106.329 167.681 106.429 167.678 106.507 167.674C106.589 167.665 106.68 167.656 106.78 167.646V168.959C106.662 168.982 106.525 169 106.37 169.014C106.22 169.027 106.062 169.034 105.898 169.034ZM110.91 169.15C110.276 169.15 109.73 169.062 109.269 168.884C108.814 168.701 108.454 168.451 108.189 168.132C107.925 167.808 107.768 167.435 107.718 167.011V166.997H109.406L109.413 167.011C109.504 167.271 109.675 167.482 109.926 167.646C110.176 167.811 110.513 167.893 110.937 167.893C111.22 167.893 111.468 167.854 111.682 167.776C111.897 167.694 112.065 167.583 112.188 167.441C112.311 167.3 112.373 167.136 112.373 166.949V166.936C112.373 166.717 112.284 166.535 112.106 166.389C111.929 166.238 111.635 166.118 111.224 166.026L110.014 165.753C109.54 165.648 109.149 165.502 108.839 165.315C108.529 165.129 108.296 164.898 108.141 164.625C107.991 164.352 107.916 164.033 107.916 163.668V163.661C107.916 163.21 108.041 162.813 108.292 162.472C108.547 162.13 108.9 161.863 109.351 161.672C109.803 161.48 110.322 161.385 110.91 161.385C111.516 161.385 112.038 161.476 112.475 161.658C112.913 161.84 113.255 162.091 113.501 162.41C113.747 162.729 113.888 163.091 113.925 163.497V163.511H112.325L112.318 163.49C112.254 163.253 112.102 163.053 111.86 162.889C111.623 162.72 111.304 162.636 110.903 162.636C110.652 162.636 110.427 162.674 110.226 162.752C110.03 162.829 109.875 162.939 109.762 163.08C109.652 163.217 109.597 163.379 109.597 163.565V163.572C109.597 163.718 109.634 163.846 109.707 163.955C109.784 164.064 109.905 164.16 110.069 164.242C110.233 164.324 110.45 164.397 110.719 164.461L111.929 164.728C112.662 164.892 113.205 165.135 113.555 165.459C113.906 165.783 114.082 166.218 114.082 166.765V166.778C114.082 167.252 113.945 167.667 113.672 168.022C113.398 168.378 113.022 168.656 112.544 168.856C112.065 169.052 111.521 169.15 110.91 169.15Z" fill="#101828"/>
<path d="M228.255 165.739V164.317H230.88C231.513 164.317 232.006 164.156 232.356 163.832C232.707 163.504 232.883 163.044 232.883 162.451V162.438C232.883 161.84 232.707 161.38 232.356 161.057C232.006 160.733 231.513 160.571 230.88 160.571H228.255V159.136H231.311C231.98 159.136 232.566 159.272 233.067 159.546C233.569 159.819 233.961 160.204 234.243 160.701C234.526 161.193 234.667 161.77 234.667 162.431V162.444C234.667 163.101 234.526 163.677 234.243 164.174C233.961 164.666 233.569 165.051 233.067 165.329C232.566 165.603 231.98 165.739 231.311 165.739H228.255ZM227.373 169V159.136H229.137V169H227.373ZM242.803 169L237.908 163.647C237.566 163.269 237.293 162.943 237.088 162.67C236.887 162.392 236.744 162.139 236.657 161.911C236.575 161.683 236.534 161.453 236.534 161.221V161.207C236.534 160.77 236.65 160.38 236.883 160.038C237.12 159.696 237.441 159.43 237.846 159.238C238.257 159.047 238.719 158.951 239.234 158.951C239.754 158.951 240.214 159.047 240.615 159.238C241.016 159.43 241.331 159.694 241.558 160.031C241.791 160.368 241.907 160.754 241.907 161.187V161.2C241.907 161.537 241.832 161.854 241.681 162.15C241.536 162.447 241.299 162.736 240.971 163.019C240.642 163.297 240.209 163.577 239.672 163.859L238.845 163.012C239.241 162.807 239.553 162.615 239.781 162.438C240.013 162.255 240.18 162.073 240.28 161.891C240.38 161.704 240.43 161.503 240.43 161.289V161.275C240.43 161.057 240.38 160.863 240.28 160.694C240.18 160.526 240.041 160.394 239.863 160.298C239.685 160.202 239.478 160.154 239.241 160.154C239.013 160.154 238.81 160.202 238.633 160.298C238.455 160.394 238.314 160.526 238.209 160.694C238.109 160.858 238.058 161.052 238.058 161.275V161.289C238.058 161.449 238.09 161.606 238.154 161.761C238.218 161.911 238.33 162.087 238.489 162.287C238.649 162.488 238.867 162.736 239.145 163.032L244.785 168.993V169H242.803ZM238.879 169.185C238.195 169.185 237.596 169.068 237.081 168.836C236.57 168.604 236.174 168.28 235.891 167.865C235.609 167.446 235.468 166.958 235.468 166.402V166.389C235.468 165.81 235.623 165.302 235.932 164.864C236.242 164.427 236.721 164.042 237.368 163.709L237.949 163.401L238.797 164.338L238.311 164.584C237.919 164.78 237.619 165.021 237.409 165.309C237.204 165.591 237.101 165.908 237.101 166.259V166.272C237.101 166.591 237.183 166.874 237.347 167.12C237.512 167.362 237.739 167.551 238.031 167.688C238.323 167.82 238.662 167.886 239.05 167.886C239.423 167.886 239.765 167.836 240.075 167.735C240.385 167.631 240.661 167.485 240.902 167.298C241.148 167.111 241.362 166.892 241.545 166.642C241.814 166.263 242.014 165.83 242.146 165.343C242.278 164.855 242.345 164.331 242.345 163.771V163.511H243.828V163.859C243.828 164.634 243.719 165.35 243.5 166.006C243.286 166.658 242.957 167.225 242.515 167.708C242.101 168.168 241.59 168.531 240.984 168.795C240.378 169.055 239.676 169.185 238.879 169.185ZM245.886 169V159.136H247.65V167.517H252.169V169H245.886ZM256.819 165.794V164.249H264.352V165.794H256.819ZM259.813 168.754V161.289H261.358V168.754H259.813ZM268.331 169V160.872H268.208L265.754 162.602V160.947L268.331 159.136H270.088V169H268.331ZM276.091 169.246C275.421 169.246 274.831 169.121 274.32 168.87C273.81 168.619 273.404 168.28 273.103 167.852C272.803 167.419 272.629 166.933 272.584 166.396L272.577 166.307H274.197L274.211 166.354C274.256 166.623 274.363 166.867 274.532 167.086C274.701 167.305 274.919 167.48 275.188 167.612C275.457 167.74 275.76 167.804 276.097 167.804C276.48 167.804 276.818 167.719 277.109 167.551C277.405 167.382 277.636 167.15 277.8 166.854C277.964 166.553 278.046 166.211 278.046 165.828V165.814C278.046 165.432 277.961 165.094 277.793 164.803C277.629 164.507 277.401 164.276 277.109 164.112C276.822 163.944 276.489 163.859 276.111 163.859C275.833 163.859 275.576 163.9 275.339 163.982C275.106 164.064 274.899 164.188 274.717 164.352C274.625 164.429 274.541 164.516 274.464 164.611C274.386 164.702 274.318 164.803 274.259 164.912H272.748L273.226 159.136H279.146V160.578H274.6L274.32 163.586H274.443C274.58 163.363 274.753 163.174 274.963 163.019C275.172 162.859 275.412 162.738 275.68 162.656C275.949 162.57 276.236 162.526 276.542 162.526C277.162 162.526 277.708 162.668 278.182 162.95C278.661 163.228 279.037 163.613 279.31 164.105C279.584 164.593 279.721 165.151 279.721 165.78V165.794C279.721 166.478 279.566 167.079 279.256 167.599C278.95 168.114 278.524 168.517 277.977 168.809C277.43 169.1 276.802 169.246 276.091 169.246ZM282.046 169.13C281.736 169.13 281.476 169.027 281.266 168.822C281.061 168.613 280.959 168.357 280.959 168.057C280.959 167.751 281.061 167.496 281.266 167.291C281.476 167.081 281.736 166.977 282.046 166.977C282.36 166.977 282.62 167.081 282.825 167.291C283.03 167.496 283.132 167.751 283.132 168.057C283.132 168.357 283.03 168.613 282.825 168.822C282.62 169.027 282.36 169.13 282.046 169.13ZM288.205 169.246C287.536 169.246 286.945 169.121 286.435 168.87C285.925 168.619 285.519 168.28 285.218 167.852C284.917 167.419 284.744 166.933 284.699 166.396L284.692 166.307H286.312L286.326 166.354C286.371 166.623 286.478 166.867 286.647 167.086C286.815 167.305 287.034 167.48 287.303 167.612C287.572 167.74 287.875 167.804 288.212 167.804C288.595 167.804 288.932 167.719 289.224 167.551C289.52 167.382 289.75 167.15 289.914 166.854C290.079 166.553 290.161 166.211 290.161 165.828V165.814C290.161 165.432 290.076 165.094 289.908 164.803C289.744 164.507 289.516 164.276 289.224 164.112C288.937 163.944 288.604 163.859 288.226 163.859C287.948 163.859 287.69 163.9 287.454 163.982C287.221 164.064 287.014 164.188 286.831 164.352C286.74 164.429 286.656 164.516 286.579 164.611C286.501 164.702 286.433 164.803 286.373 164.912H284.863L285.341 159.136H291.261V160.578H286.715L286.435 163.586H286.558C286.695 163.363 286.868 163.174 287.078 163.019C287.287 162.859 287.526 162.738 287.795 162.656C288.064 162.57 288.351 162.526 288.657 162.526C289.276 162.526 289.823 162.668 290.297 162.95C290.776 163.228 291.152 163.613 291.425 164.105C291.699 164.593 291.835 165.151 291.835 165.78V165.794C291.835 166.478 291.68 167.079 291.371 167.599C291.065 168.114 290.639 168.517 290.092 168.809C289.545 169.1 288.916 169.246 288.205 169.246ZM295.746 169V160.872H295.623L293.169 162.602V160.947L295.746 159.136H297.503V169H295.746ZM302.022 164.461C301.562 164.461 301.166 164.352 300.833 164.133C300.505 163.91 300.252 163.593 300.074 163.183C299.896 162.772 299.808 162.287 299.808 161.727V161.72C299.808 161.159 299.896 160.676 300.074 160.271C300.252 159.86 300.505 159.546 300.833 159.327C301.166 159.108 301.562 158.999 302.022 158.999C302.483 158.999 302.877 159.108 303.205 159.327C303.538 159.546 303.793 159.86 303.971 160.271C304.148 160.676 304.237 161.159 304.237 161.72V161.727C304.237 162.287 304.148 162.772 303.971 163.183C303.793 163.593 303.538 163.91 303.205 164.133C302.877 164.352 302.483 164.461 302.022 164.461ZM302.022 163.47C302.332 163.47 302.574 163.319 302.747 163.019C302.92 162.713 303.007 162.283 303.007 161.727V161.72C303.007 161.168 302.92 160.742 302.747 160.441C302.574 160.141 302.332 159.99 302.022 159.99C301.708 159.99 301.464 160.141 301.291 160.441C301.122 160.742 301.038 161.168 301.038 161.72V161.727C301.038 162.283 301.122 162.713 301.291 163.019C301.464 163.319 301.708 163.47 302.022 163.47ZM303.253 169H301.845L308.51 159.136H309.918L303.253 169ZM309.733 169.137C309.278 169.137 308.883 169.027 308.551 168.809C308.218 168.585 307.963 168.271 307.785 167.865C307.607 167.455 307.519 166.97 307.519 166.409V166.402C307.519 165.837 307.607 165.352 307.785 164.946C307.963 164.536 308.218 164.222 308.551 164.003C308.883 163.784 309.278 163.675 309.733 163.675C310.194 163.675 310.59 163.784 310.923 164.003C311.256 164.222 311.511 164.536 311.688 164.946C311.866 165.352 311.955 165.837 311.955 166.402V166.409C311.955 166.97 311.866 167.455 311.688 167.865C311.511 168.271 311.256 168.585 310.923 168.809C310.59 169.027 310.194 169.137 309.733 169.137ZM309.733 168.146C310.048 168.146 310.289 167.995 310.458 167.694C310.631 167.389 310.718 166.961 310.718 166.409V166.402C310.718 165.846 310.631 165.418 310.458 165.117C310.289 164.816 310.048 164.666 309.733 164.666C309.424 164.666 309.182 164.816 309.009 165.117C308.84 165.418 308.756 165.846 308.756 166.402V166.409C308.756 166.961 308.84 167.389 309.009 167.694C309.182 167.995 309.424 168.146 309.733 168.146Z" fill="#12B76A"/>
</g>
<defs>
<linearGradient id="paint0_linear_10991_32758" x1="172" y1="74" x2="172" y2="137" gradientUnits="userSpaceOnUse">
<stop stop-color="#12B76A" stop-opacity="0.2"/>
<stop offset="1" stop-color="#12B76A" stop-opacity="0"/>
</linearGradient>
<linearGradient id="paint1_linear_10991_32758" x1="172" y1="185" x2="172" y2="253" gradientUnits="userSpaceOnUse">
<stop stop-color="#F04438" stop-opacity="0.2"/>
<stop offset="1" stop-color="#F04438" stop-opacity="0"/>
</linearGradient>
<clipPath id="clip0_10991_32758">
<path d="M19 42C19 33.1634 26.1634 26 35 26H309C317.837 26 325 33.1634 325 42V117C325 125.837 317.837 133 309 133H35C26.1634 133 19 125.837 19 117V42Z" fill="white"/>
</clipPath>
<clipPath id="clip1_10991_32758">
<path d="M19 161C19 152.163 26.1634 145 35 145H309C317.837 145 325 152.163 325 161V237C325 245.837 317.837 253 309 253H35C26.1634 253 19 245.837 19 237V161Z" fill="white"/>
</clipPath>
</defs>
</svg>
