<svg width="50" height="50" viewBox="0 0 50 50" fill="none" xmlns="http://www.w3.org/2000/svg">
<path d="M7.35974 24.9109L11.1353 28.0572L17.2706 21.9219L25.6083 28.0572L41.8118 16.5732" stroke="#0187FF" stroke-width="2" stroke-linecap="round"/>
<circle cx="7.51705" cy="24.439" r="2.51705" fill="#FEC84B"/>
<circle cx="17.2706" cy="21.9219" r="2.51705" fill="#FEC84B"/>
<circle cx="25.517" cy="28.517" r="2.51705" fill="#FEC84B"/>
<circle cx="41.517" cy="16.517" r="2.51705" fill="#FEC84B"/>
<rect x="13" y="30" width="6" height="14" rx="2" fill="#8AC8FF"/>
<rect x="22" y="33" width="6" height="11" rx="2" fill="#8AC8FF"/>
<rect x="31" y="27" width="6" height="17" rx="2" fill="#8AC8FF"/>
<rect x="24" y="6" width="13" height="13" rx="6.5" fill="#F79009"/>
<rect x="25.4445" y="7.44446" width="10.1111" height="10.1111" rx="5.05556" fill="white"/>
<path d="M30.3365 15.3889V9.61108H30.7625V15.3889H30.3365ZM31.3626 11.5746C31.3453 11.4091 31.2683 11.2805 31.1314 11.1887C30.9963 11.0954 30.8032 11.0488 30.5521 11.0488C30.3858 11.0488 30.2473 11.0676 30.1364 11.1052C30.0256 11.1428 29.9424 11.1947 29.887 11.2609C29.8316 11.3256 29.803 11.4001 29.8013 11.4843C29.7978 11.5536 29.8134 11.6145 29.8481 11.6672C29.8844 11.7198 29.9364 11.7665 30.0039 11.8071C30.0732 11.8462 30.1563 11.8808 30.2533 11.9109C30.3503 11.941 30.4594 11.9673 30.5807 11.9899L31.0379 12.0802C31.3012 12.1298 31.5332 12.196 31.7341 12.2788C31.9368 12.3615 32.1065 12.4601 32.2433 12.5745C32.3819 12.6888 32.4867 12.8205 32.5577 12.9694C32.6287 13.1184 32.6651 13.2854 32.6668 13.4705C32.6651 13.7624 32.5802 14.0129 32.4122 14.222C32.2442 14.4312 32.0026 14.5914 31.6874 14.7028C31.3739 14.8141 30.9955 14.8698 30.5521 14.8698C30.107 14.8698 29.719 14.8118 29.3882 14.696C29.0574 14.5801 28.8002 14.4041 28.6166 14.1679C28.4331 13.9316 28.3387 13.633 28.3335 13.2718H29.5649C29.5753 13.4208 29.6212 13.5449 29.7026 13.6442C29.784 13.7435 29.8957 13.8188 30.0377 13.8699C30.1815 13.9211 30.3477 13.9467 30.5365 13.9467C30.7097 13.9467 30.8569 13.9264 30.9781 13.8857C31.1011 13.8451 31.1955 13.7887 31.2613 13.7165C31.3271 13.6442 31.3609 13.5615 31.3626 13.4682C31.3609 13.3809 31.3297 13.3065 31.2691 13.2448C31.2085 13.1816 31.115 13.1274 30.9885 13.0823C30.8638 13.0356 30.7045 12.9927 30.5105 12.9536L29.9546 12.8408C29.4939 12.749 29.131 12.6008 28.866 12.3962C28.6011 12.19 28.4694 11.9117 28.4712 11.5611C28.4694 11.2752 28.5578 11.0247 28.7361 10.8095C28.9145 10.5944 29.1613 10.4266 29.4766 10.3062C29.7918 10.1859 30.1511 10.1257 30.5547 10.1257C30.9669 10.1257 31.3245 10.1866 31.6276 10.3085C31.9325 10.4289 32.1689 10.5981 32.3369 10.8163C32.5049 11.0345 32.5906 11.2872 32.5941 11.5746H31.3626Z" fill="black"/>
</svg>
