<svg width="24" height="24" viewBox="0 0 24 24" fill="none" xmlns="http://www.w3.org/2000/svg">
<path d="M14.5714 9.42868V14.5715H17.1428V9.42868H14.5714ZM14.1428 8.57153H17.5714C17.685 8.57153 17.794 8.61669 17.8744 8.69706C17.9548 8.77743 17.9999 8.88644 17.9999 9.0001V15.0001C17.9999 15.1138 17.9548 15.2228 17.8744 15.3032C17.794 15.3835 17.685 15.4287 17.5714 15.4287H14.1428C14.0291 15.4287 13.9201 15.3835 13.8398 15.3032C13.7594 15.2228 13.7142 15.1138 13.7142 15.0001V9.0001C13.7142 8.88644 13.7594 8.77743 13.8398 8.69706C13.9201 8.61669 14.0291 8.57153 14.1428 8.57153Z" fill="#414651"/>
<path d="M15.4286 6H16.2857V9H15.4286V6ZM15.4286 15H16.2857V18H15.4286V15Z" fill="#414651"/>
<path d="M7.71432 6.85714V16.2857H10.2857V6.85714H7.71432ZM7.28575 6H10.7143C10.828 6 10.937 6.04515 11.0174 6.12553C11.0977 6.2059 11.1429 6.31491 11.1429 6.42857V16.7143C11.1429 16.828 11.0977 16.937 11.0174 17.0173C10.937 17.0977 10.828 17.1429 10.7143 17.1429H7.28575C7.17208 17.1429 7.06308 17.0977 6.9827 17.0173C6.90233 16.937 6.85718 16.828 6.85718 16.7143V6.42857C6.85718 6.31491 6.90233 6.2059 6.9827 6.12553C7.06308 6.04515 7.17208 6 7.28575 6Z" fill="#414651"/>
<path d="M8.57148 3.42847H9.42862V7.71418H8.57148V3.42847ZM8.57148 15.4285H9.42862V19.7142H8.57148V15.4285ZM7.28577 7.71418H8.57148V8.57132H7.28577V7.71418ZM9.42862 7.71418H10.7143V8.57132H9.42862V7.71418ZM8.57148 8.57132H9.42862V9.42847H8.57148V8.57132ZM7.28577 9.42847H8.57148V10.2856H7.28577V9.42847ZM9.42862 9.42847H10.7143V10.2856H9.42862V9.42847ZM8.57148 10.2856H9.42862V11.1428H8.57148V10.2856ZM7.28577 11.1428H8.57148V11.9999H7.28577V11.1428ZM9.42862 11.1428H10.7143V11.9999H9.42862V11.1428ZM8.57148 11.9999H9.42862V12.857H8.57148V11.9999ZM7.28577 12.857H8.57148V13.7142H7.28577V12.857ZM9.42862 12.857H10.7143V13.7142H9.42862V12.857ZM8.57148 13.7142H9.42862V14.5713H8.57148V13.7142ZM7.28577 14.5713H8.57148V15.4285H7.28577V14.5713ZM9.42862 14.5713H10.7143V15.4285H9.42862V14.5713Z" fill="#414651"/>
</svg>
