<svg width="343" height="280" viewBox="0 0 343 280" fill="none" xmlns="http://www.w3.org/2000/svg">
<path d="M0 36C0 16.1178 16.1178 0 36 0H307C326.882 0 343 16.1178 343 36V244C343 263.882 326.882 280 307 280H36C16.1178 280 0 263.882 0 244V36Z" fill="#F5FAFF"/>
<g clip-path="url(#clip0_10991_32508)">
<path d="M176 212V52C176 50.3431 174.657 49 173 49C171.343 49 170 50.3431 170 52V212C170 213.657 171.343 215 173 215C174.657 215 176 213.657 176 212Z" fill="#101828"/>
<path d="M192 209H153C149.686 209 147 211.686 147 215C147 218.314 149.686 221 153 221H192C195.314 221 198 218.314 198 215C198 211.686 195.314 209 192 209Z" fill="#101828"/>
<path d="M136.934 215.472H208.124C214.709 215.472 220.056 220.819 220.056 227.404V232.865H125V227.404C125 220.819 130.346 215.472 136.931 215.472H136.934Z" fill="#349FFF"/>
<path d="M37 179L81.989 80L126 178.352" stroke="#B0DAFF" stroke-width="2" stroke-miterlimit="10"/>
<path d="M215 150.806L259.326 53L305 153" stroke="#B0DAFF" stroke-width="2" stroke-miterlimit="10"/>
<g clip-path="url(#clip1_10991_32508)">
<mask id="mask0_10991_32508" style="mask-type:luminance" maskUnits="userSpaceOnUse" x="58" y="128" width="48" height="48">
<path d="M58 128H106V176H58V128Z" fill="white"/>
</mask>
<g mask="url(#mask0_10991_32508)">
<path d="M106 128H58V176H106V128Z" fill="#F7931A"/>
<path d="M94.0221 148.864C94.5201 145.496 91.9701 143.7 88.4561 142.48L89.5961 137.94L86.8201 137.25L85.7141 141.678L83.5001 141.148L84.6221 136.688L81.8481 136L80.7081 140.556L78.9461 140.138V140.122L75.1121 139.16L74.3721 142.126C74.3721 142.126 76.4261 142.61 76.3921 142.626C77.5181 142.914 77.7101 143.652 77.6781 144.228L76.3941 149.426L76.6841 149.522L76.3781 149.458L74.5661 156.724C74.4381 157.062 74.0841 157.574 73.3001 157.364C73.3301 157.412 71.2941 156.884 71.2941 156.884L69.9141 160.044L73.5241 160.942L75.4961 161.456L74.3421 166.06L77.1161 166.748L78.2401 162.194L80.4681 162.77L79.3301 167.31L82.1041 168L83.2441 163.396C87.9741 164.294 91.5361 163.942 93.0281 159.658C94.2321 156.21 92.9641 154.238 90.4781 152.922C92.2901 152.522 93.6541 151.318 94.0061 148.862L94.0221 148.864ZM87.6861 157.75C86.8361 161.2 81.0301 159.322 79.1541 158.872L80.6781 152.762C82.5541 153.242 88.5861 154.158 87.6861 157.734V157.75ZM88.5361 148.816C87.7661 151.944 82.9221 150.356 81.3661 149.972L82.7461 144.436C84.3181 144.822 89.3541 145.56 88.5381 148.816" fill="white"/>
</g>
</g>
<g clip-path="url(#clip2_10991_32508)">
<path fill-rule="evenodd" clip-rule="evenodd" d="M260 102C273.256 102 284 112.744 284 126C284 139.256 273.256 150 260 150C246.744 150 236 139.256 236 126C236 112.744 246.744 102 260 102Z" fill="#F0B90B"/>
<path d="M249.19 126L249.208 132.346L254.6 135.519V139.234L246.052 134.221V124.144L249.19 126ZM249.19 119.654V123.352L246.05 121.494V117.796L249.19 115.938L252.346 117.796L249.19 119.654ZM256.852 117.796L259.992 115.938L263.148 117.796L259.992 119.654L256.852 117.796Z" fill="white"/>
<path d="M251.459 131.031V127.315L254.6 129.173V132.871L251.459 131.031ZM256.852 136.85L259.992 138.707L263.148 136.85V140.548L259.992 142.406L256.852 140.548V136.85ZM267.652 117.796L270.792 115.938L273.948 117.796V121.494L270.792 123.352V119.654L267.652 117.796ZM270.792 132.346L270.809 126L273.95 124.142V134.219L265.402 139.232V135.517L270.792 132.346Z" fill="white"/>
<path d="M268.54 131.03L265.4 132.871V129.173L268.54 127.315V131.03Z" fill="white"/>
<path d="M268.54 120.969L268.558 124.684L263.15 127.857V134.219L260.009 136.059L256.869 134.219V127.857L251.461 124.684V120.969L254.615 119.111L259.99 122.3L265.398 119.111L268.554 120.969H268.54ZM251.459 114.625L259.992 109.594L268.54 114.625L265.4 116.482L259.992 113.294L254.6 116.482L251.459 114.625Z" fill="white"/>
</g>
<path d="M307.556 150C309.417 150 310.229 152.271 308.727 153.37C295.385 163.13 278.224 169 259.501 169C240.779 169 223.616 163.13 210.273 153.37C208.771 152.271 209.583 150 211.444 150H307.556Z" fill="#8AC8FF"/>
<path d="M127.245 176.169C129.082 176.169 129.909 178.394 128.452 179.513C115.925 189.134 99.818 194.921 82.2458 194.921C64.6735 194.921 48.5642 189.134 36.0373 179.513C34.5805 178.394 35.4068 176.169 37.2438 176.169H127.245Z" fill="#8AC8FF"/>
<path d="M78.0513 79.1578L262.231 50.3035" stroke="#101828" stroke-width="4.60675" stroke-miterlimit="10" stroke-linecap="round"/>
<path d="M173.376 72.9546C177.695 72.9546 181.196 69.4535 181.196 65.1346C181.196 60.8158 177.695 57.3147 173.376 57.3147C169.058 57.3147 165.556 60.8158 165.556 65.1346C165.556 69.4535 169.058 72.9546 173.376 72.9546Z" fill="white" stroke="#0187FF" stroke-width="4" stroke-miterlimit="10"/>
</g>
<defs>
<clipPath id="clip0_10991_32508">
<rect width="278.063" height="185" fill="white" transform="translate(32 48)"/>
</clipPath>
<clipPath id="clip1_10991_32508">
<path d="M58 152C58 138.745 68.7452 128 82 128C95.2548 128 106 138.745 106 152C106 165.255 95.2548 176 82 176C68.7452 176 58 165.255 58 152Z" fill="white"/>
</clipPath>
<clipPath id="clip2_10991_32508">
<rect width="48" height="48" fill="white" transform="translate(236 102)"/>
</clipPath>
</defs>
</svg>
