<svg width="343" height="280" viewBox="0 0 343 280" fill="none" xmlns="http://www.w3.org/2000/svg">
<path d="M0 36C0 16.1178 16.1178 0 36 0H307C326.882 0 343 16.1178 343 36V244C343 263.882 326.882 280 307 280H36C16.1178 280 0 263.882 0 244V36Z" fill="#F5FAFF"/>
<path d="M115 174C115 169.582 118.582 166 123 166H208C212.418 166 216 169.582 216 174V186C216 190.418 212.418 194 208 194H123C118.582 194 115 190.418 115 186V174Z" fill="#FEC84B"/>
<path d="M148.462 184L146.572 176.954H147.881L149.092 182.242H149.16L150.552 176.954H151.67L153.076 182.242H153.145L154.351 176.954H155.649L153.765 184H152.583L151.147 178.956H151.074L149.648 184H148.462ZM157.395 184.088C157.06 184.088 156.758 184.023 156.492 183.893C156.228 183.762 156.02 183.578 155.867 183.341C155.717 183.1 155.642 182.817 155.642 182.491V182.481C155.642 182.166 155.72 181.894 155.876 181.666C156.033 181.435 156.262 181.254 156.565 181.124C156.868 180.994 157.235 180.917 157.668 180.895L159.641 180.772V181.573L157.839 181.69C157.497 181.71 157.245 181.782 157.082 181.905C156.92 182.029 156.838 182.201 156.838 182.423V182.433C156.838 182.66 156.925 182.838 157.097 182.965C157.273 183.092 157.496 183.155 157.766 183.155C158.01 183.155 158.228 183.106 158.42 183.009C158.612 182.911 158.764 182.779 158.874 182.613C158.985 182.444 159.04 182.254 159.04 182.042V180.353C159.04 180.086 158.956 179.882 158.786 179.742C158.617 179.599 158.367 179.527 158.035 179.527C157.758 179.527 157.532 179.576 157.356 179.674C157.18 179.768 157.061 179.903 156.999 180.079L156.994 180.099H155.847L155.852 180.055C155.891 179.755 156.008 179.493 156.203 179.269C156.399 179.044 156.658 178.87 156.98 178.746C157.302 178.622 157.673 178.561 158.093 178.561C158.555 178.561 158.946 178.632 159.265 178.775C159.584 178.915 159.827 179.12 159.993 179.391C160.159 179.658 160.242 179.978 160.242 180.353V184H159.04V183.268H158.957C158.86 183.437 158.733 183.583 158.577 183.707C158.424 183.831 158.248 183.925 158.049 183.99C157.851 184.055 157.633 184.088 157.395 184.088ZM161.382 184V178.663H162.597V179.483H162.68C162.771 179.197 162.934 178.974 163.169 178.814C163.406 178.655 163.701 178.575 164.052 178.575C164.144 178.575 164.233 178.582 164.321 178.595C164.412 178.604 164.487 178.618 164.546 178.634V179.723C164.448 179.7 164.349 179.684 164.248 179.674C164.15 179.661 164.048 179.654 163.94 179.654C163.67 179.654 163.434 179.705 163.232 179.806C163.03 179.907 162.874 180.051 162.763 180.24C162.653 180.426 162.597 180.646 162.597 180.899V184H161.382ZM165.28 184V178.663H166.496V179.483H166.579C166.706 179.194 166.898 178.967 167.155 178.805C167.412 178.642 167.733 178.561 168.117 178.561C168.713 178.561 169.169 178.733 169.484 179.078C169.8 179.423 169.958 179.913 169.958 180.548V184H168.742V180.831C168.742 180.414 168.654 180.102 168.479 179.894C168.306 179.685 168.036 179.581 167.668 179.581C167.427 179.581 167.219 179.635 167.043 179.742C166.867 179.85 166.732 180.001 166.638 180.196C166.543 180.392 166.496 180.623 166.496 180.89V184H165.28ZM171.088 184V178.663H172.299V184H171.088ZM171.699 177.77C171.5 177.77 171.329 177.7 171.186 177.56C171.043 177.42 170.971 177.252 170.971 177.057C170.971 176.855 171.043 176.686 171.186 176.549C171.329 176.409 171.5 176.339 171.699 176.339C171.897 176.339 172.066 176.409 172.206 176.549C172.35 176.686 172.421 176.855 172.421 177.057C172.421 177.252 172.35 177.42 172.206 177.56C172.066 177.7 171.897 177.77 171.699 177.77ZM173.478 184V178.663H174.694V179.483H174.777C174.904 179.194 175.096 178.967 175.353 178.805C175.61 178.642 175.931 178.561 176.315 178.561C176.911 178.561 177.367 178.733 177.682 179.078C177.998 179.423 178.156 179.913 178.156 180.548V184H176.94V180.831C176.94 180.414 176.852 180.102 176.676 179.894C176.504 179.685 176.234 179.581 175.866 179.581C175.625 179.581 175.417 179.635 175.241 179.742C175.065 179.85 174.93 180.001 174.836 180.196C174.741 180.392 174.694 180.623 174.694 180.89V184H173.478ZM181.566 185.875C181.098 185.875 180.692 185.813 180.351 185.689C180.012 185.566 179.745 185.39 179.55 185.162C179.354 184.938 179.236 184.675 179.193 184.376L179.198 184.361H180.409L180.419 184.376C180.458 184.545 180.577 184.684 180.775 184.791C180.977 184.902 181.247 184.957 181.586 184.957C182.003 184.957 182.325 184.864 182.553 184.679C182.784 184.493 182.899 184.229 182.899 183.888V182.862H182.816C182.715 183.054 182.584 183.217 182.421 183.351C182.261 183.484 182.077 183.585 181.869 183.653C181.664 183.718 181.438 183.751 181.19 183.751C180.741 183.751 180.352 183.644 180.023 183.429C179.695 183.211 179.441 182.91 179.262 182.525C179.086 182.141 178.998 181.697 178.998 181.192V181.183C178.998 180.668 179.088 180.216 179.267 179.825C179.446 179.435 179.7 179.129 180.028 178.907C180.36 178.686 180.756 178.575 181.215 178.575C181.462 178.575 181.688 178.614 181.894 178.692C182.102 178.771 182.284 178.881 182.44 179.024C182.6 179.168 182.73 179.34 182.831 179.542H182.894V178.663H184.11V183.868C184.11 184.278 184.006 184.633 183.798 184.933C183.593 185.235 183.3 185.468 182.919 185.631C182.538 185.794 182.087 185.875 181.566 185.875ZM181.566 182.784C181.846 182.784 182.087 182.717 182.289 182.584C182.491 182.447 182.645 182.26 182.753 182.022C182.864 181.785 182.919 181.508 182.919 181.192V181.183C182.919 180.867 182.864 180.59 182.753 180.353C182.645 180.112 182.491 179.924 182.289 179.791C182.087 179.654 181.846 179.586 181.566 179.586C181.283 179.586 181.042 179.654 180.844 179.791C180.648 179.924 180.499 180.112 180.394 180.353C180.294 180.59 180.243 180.867 180.243 181.183V181.192C180.243 181.505 180.294 181.782 180.394 182.022C180.499 182.26 180.648 182.447 180.844 182.584C181.042 182.717 181.283 182.784 181.566 182.784Z" fill="#101828"/>
<path d="M16 213C16 208.582 19.5817 205 24 205H97C101.418 205 105 208.582 105 213V225C105 229.418 101.418 233 97 233H24C19.5817 233 16 229.418 16 225V213Z" fill="#12B76A"/>
<path d="M26.2421 223V215.954H27.5019V218.884H30.9296V215.954H32.1845V223H30.9296V219.943H27.5019V223H26.2421ZM35.7659 223.107C35.2353 223.107 34.7795 222.995 34.3987 222.771C34.0211 222.546 33.7297 222.227 33.5247 221.813C33.3196 221.4 33.217 220.91 33.217 220.344V220.339C33.217 219.779 33.3179 219.291 33.5198 218.874C33.7248 218.457 34.0146 218.135 34.3889 217.907C34.7633 217.676 35.2027 217.561 35.7073 217.561C36.2151 217.561 36.6513 217.673 37.0159 217.897C37.3837 218.119 37.6669 218.43 37.8655 218.83C38.064 219.23 38.1633 219.699 38.1633 220.236V220.637H33.8274V219.821H37.5676L36.9914 220.583V220.1C36.9914 219.745 36.9377 219.45 36.8303 219.216C36.7229 218.981 36.5732 218.806 36.3811 218.688C36.1923 218.571 35.9726 218.513 35.7219 218.513C35.4713 218.513 35.2483 218.575 35.053 218.698C34.8609 218.819 34.7079 218.998 34.594 219.235C34.4833 219.47 34.428 219.758 34.428 220.1V220.588C34.428 220.917 34.4833 221.198 34.594 221.433C34.7047 221.664 34.8609 221.843 35.0627 221.97C35.2678 222.093 35.5103 222.155 35.7903 222.155C36.0084 222.155 36.1955 222.124 36.3518 222.062C36.5113 221.997 36.6399 221.921 36.7375 221.833C36.8352 221.742 36.9036 221.656 36.9426 221.574L36.9573 221.54H38.1096L38.0998 221.584C38.0575 221.757 37.9794 221.932 37.8655 222.111C37.7548 222.287 37.6034 222.451 37.4114 222.604C37.2226 222.754 36.9914 222.876 36.718 222.971C36.4446 223.062 36.1272 223.107 35.7659 223.107ZM40.5142 223.088C40.1789 223.088 39.8778 223.023 39.6109 222.893C39.3472 222.762 39.1389 222.578 38.9859 222.341C38.8362 222.1 38.7613 221.817 38.7613 221.491V221.481C38.7613 221.166 38.8394 220.894 38.9957 220.666C39.1519 220.435 39.3814 220.254 39.6841 220.124C39.9869 219.994 40.3547 219.917 40.7877 219.895L42.7603 219.772V220.573L40.9586 220.69C40.6168 220.71 40.3645 220.782 40.2017 220.905C40.039 221.029 39.9576 221.201 39.9576 221.423V221.433C39.9576 221.66 40.0438 221.838 40.2164 221.965C40.3921 222.092 40.6151 222.155 40.8853 222.155C41.1295 222.155 41.3476 222.106 41.5396 222.009C41.7317 221.911 41.883 221.779 41.9937 221.613C42.1044 221.444 42.1597 221.254 42.1597 221.042V219.353C42.1597 219.086 42.0751 218.882 41.9058 218.742C41.7366 218.599 41.4859 218.527 41.1539 218.527C40.8772 218.527 40.6509 218.576 40.4752 218.674C40.2994 218.768 40.1806 218.903 40.1187 219.079L40.1138 219.099H38.9664L38.9713 219.055C39.0103 218.755 39.1275 218.493 39.3228 218.269C39.5181 218.044 39.7769 217.87 40.0992 217.746C40.4214 217.622 40.7925 217.561 41.2125 217.561C41.6747 217.561 42.0653 217.632 42.3843 217.775C42.7033 217.915 42.9459 218.12 43.1119 218.391C43.2779 218.658 43.3609 218.978 43.3609 219.353V223H42.1597V222.268H42.0767C41.9791 222.437 41.8521 222.583 41.6959 222.707C41.5429 222.831 41.3671 222.925 41.1685 222.99C40.9699 223.055 40.7519 223.088 40.5142 223.088ZM44.5497 223V215.598H45.7655V223H44.5497ZM49.0734 223.024C48.4615 223.024 48.0204 222.912 47.7502 222.688C47.48 222.463 47.3449 222.095 47.3449 221.584V218.605H46.5148V217.663H47.3449V216.354H48.5803V217.663H49.7033V218.605H48.5803V221.296C48.5803 221.56 48.6356 221.753 48.7463 221.877C48.8602 221.997 49.0425 222.058 49.2932 222.058C49.3811 222.058 49.4527 222.056 49.508 222.053C49.5666 222.046 49.6317 222.04 49.7033 222.033V222.971C49.6187 222.987 49.521 223 49.4104 223.01C49.3029 223.02 49.1906 223.024 49.0734 223.024ZM50.648 223V215.598H51.8638V218.483H51.9468C52.0738 218.194 52.2658 217.967 52.523 217.805C52.7801 217.642 53.1008 217.561 53.4849 217.561C53.882 217.561 54.2173 217.639 54.4907 217.795C54.7642 217.948 54.9709 218.173 55.1109 218.469C55.2541 218.765 55.3257 219.125 55.3257 219.548V223H54.1099V219.831C54.1099 219.414 54.022 219.102 53.8462 218.894C53.6737 218.685 53.4035 218.581 53.0357 218.581C52.7948 218.581 52.5864 218.635 52.4107 218.742C52.2349 218.85 52.0998 219.001 52.0054 219.196C51.911 219.392 51.8638 219.623 51.8638 219.89V223H50.648ZM56.8465 224.875C56.7717 224.875 56.6935 224.873 56.6122 224.87C56.534 224.867 56.4575 224.862 56.3827 224.855V223.923C56.4315 223.929 56.4885 223.933 56.5536 223.933C56.6187 223.936 56.6821 223.938 56.744 223.938C56.9946 223.938 57.1948 223.882 57.3446 223.771C57.4976 223.664 57.6066 223.49 57.6717 223.249L57.7352 223.005L55.826 217.663H57.1541L58.5604 222.39L58.2284 221.833H58.6483L58.326 222.39L59.7323 217.663H61.0116L59.0975 223.117C58.9445 223.56 58.7687 223.91 58.5702 224.167C58.3716 224.424 58.1323 224.606 57.8524 224.714C57.5757 224.821 57.2404 224.875 56.8465 224.875ZM64.1997 223V215.954H65.645L67.7641 221.379H67.8471L69.9614 215.954H71.4067V223H70.2739V217.99H69.6587L70.9087 216.149L68.2329 223H67.3735L64.7026 216.149L65.9526 217.99H65.3325V223H64.1997ZM74.1531 223.088C73.8178 223.088 73.5167 223.023 73.2498 222.893C72.9861 222.762 72.7778 222.578 72.6248 222.341C72.4751 222.1 72.4002 221.817 72.4002 221.491V221.481C72.4002 221.166 72.4783 220.894 72.6346 220.666C72.7908 220.435 73.0203 220.254 73.323 220.124C73.6258 219.994 73.9936 219.917 74.4266 219.895L76.3992 219.772V220.573L74.5975 220.69C74.2557 220.71 74.0034 220.782 73.8406 220.905C73.6779 221.029 73.5965 221.201 73.5965 221.423V221.433C73.5965 221.66 73.6827 221.838 73.8553 221.965C74.0311 222.092 74.254 222.155 74.5242 222.155C74.7684 222.155 74.9865 222.106 75.1785 222.009C75.3706 221.911 75.5219 221.779 75.6326 221.613C75.7433 221.444 75.7986 221.254 75.7986 221.042V219.353C75.7986 219.086 75.714 218.882 75.5447 218.742C75.3755 218.599 75.1248 218.527 74.7928 218.527C74.5161 218.527 74.2898 218.576 74.1141 218.674C73.9383 218.768 73.8195 218.903 73.7576 219.079L73.7527 219.099H72.6053L72.6102 219.055C72.6492 218.755 72.7664 218.493 72.9617 218.269C73.157 218.044 73.4158 217.87 73.7381 217.746C74.0604 217.622 74.4314 217.561 74.8514 217.561C75.3136 217.561 75.7042 217.632 76.0232 217.775C76.3423 217.915 76.5848 218.12 76.7508 218.391C76.9168 218.658 76.9998 218.978 76.9998 219.353V223H75.7986V222.268H75.7156C75.618 222.437 75.491 222.583 75.3348 222.707C75.1818 222.831 75.006 222.925 74.8074 222.99C74.6089 223.055 74.3908 223.088 74.1531 223.088ZM78.1398 223V217.663H79.3556V218.483H79.4386C79.5297 218.197 79.6925 217.974 79.9269 217.814C80.1645 217.655 80.4591 217.575 80.8107 217.575C80.9018 217.575 80.9913 217.582 81.0792 217.595C81.1704 217.604 81.2452 217.618 81.3038 217.634V218.723C81.2062 218.7 81.1069 218.684 81.006 218.674C80.9083 218.661 80.8058 218.654 80.6984 218.654C80.4282 218.654 80.1922 218.705 79.9904 218.806C79.7885 218.907 79.6323 219.051 79.5216 219.24C79.4109 219.426 79.3556 219.646 79.3556 219.899V223H78.1398ZM84.1381 224.875C83.6694 224.875 83.2641 224.813 82.9223 224.689C82.5838 224.566 82.3168 224.39 82.1215 224.162C81.9262 223.938 81.8074 223.675 81.7651 223.376L81.77 223.361H82.9809L82.9907 223.376C83.0297 223.545 83.1485 223.684 83.3471 223.791C83.5489 223.902 83.8191 223.957 84.1577 223.957C84.5743 223.957 84.8966 223.864 85.1245 223.679C85.3556 223.493 85.4711 223.229 85.4711 222.888V221.862H85.3881C85.2872 222.054 85.1554 222.217 84.9926 222.351C84.8331 222.484 84.6492 222.585 84.4409 222.653C84.2358 222.718 84.0095 222.751 83.7621 222.751C83.3129 222.751 82.9239 222.644 82.5952 222.429C82.2664 222.211 82.0125 221.91 81.8334 221.525C81.6577 221.141 81.5698 220.697 81.5698 220.192V220.183C81.5698 219.668 81.6593 219.216 81.8383 218.825C82.0174 218.435 82.2713 218.129 82.6 217.907C82.9321 217.686 83.3276 217.575 83.7866 217.575C84.034 217.575 84.2602 217.614 84.4653 217.692C84.6736 217.771 84.8559 217.881 85.0121 218.024C85.1717 218.168 85.3019 218.34 85.4028 218.542H85.4663V217.663H86.6821V222.868C86.6821 223.278 86.5779 223.633 86.3696 223.933C86.1645 224.235 85.8715 224.468 85.4907 224.631C85.1098 224.794 84.659 224.875 84.1381 224.875ZM84.1381 221.784C84.4181 221.784 84.659 221.717 84.8608 221.584C85.0626 221.447 85.2172 221.26 85.3246 221.022C85.4353 220.785 85.4907 220.508 85.4907 220.192V220.183C85.4907 219.867 85.4353 219.59 85.3246 219.353C85.2172 219.112 85.0626 218.924 84.8608 218.791C84.659 218.654 84.4181 218.586 84.1381 218.586C83.8549 218.586 83.614 218.654 83.4155 218.791C83.2202 218.924 83.0704 219.112 82.9663 219.353C82.8653 219.59 82.8149 219.867 82.8149 220.183V220.192C82.8149 220.505 82.8653 220.782 82.9663 221.022C83.0704 221.26 83.2202 221.447 83.4155 221.584C83.614 221.717 83.8549 221.784 84.1381 221.784ZM87.866 223V217.663H89.0769V223H87.866ZM88.4763 216.77C88.2778 216.77 88.1069 216.7 87.9636 216.56C87.8204 216.42 87.7488 216.252 87.7488 216.057C87.7488 215.855 87.8204 215.686 87.9636 215.549C88.1069 215.409 88.2778 215.339 88.4763 215.339C88.6749 215.339 88.8442 215.409 88.9841 215.549C89.1274 215.686 89.199 215.855 89.199 216.057C89.199 216.252 89.1274 216.42 88.9841 216.56C88.8442 216.7 88.6749 216.77 88.4763 216.77ZM90.2559 223V217.663H91.4718V218.483H91.5548C91.6817 218.194 91.8738 217.967 92.1309 217.805C92.3881 217.642 92.7087 217.561 93.0928 217.561C93.6886 217.561 94.1443 217.733 94.46 218.078C94.7758 218.423 94.9337 218.913 94.9337 219.548V223H93.7178V219.831C93.7178 219.414 93.63 219.102 93.4542 218.894C93.2817 218.685 93.0115 218.581 92.6436 218.581C92.4027 218.581 92.1944 218.635 92.0186 218.742C91.8428 218.85 91.7078 219.001 91.6134 219.196C91.519 219.392 91.4718 219.623 91.4718 219.89V223H90.2559Z" fill="white"/>
<path d="M228 146C228 141.582 231.582 138 236 138H313C317.418 138 321 141.582 321 146V158C321 162.418 317.418 166 313 166H236C231.582 166 228 162.418 228 158V146Z" fill="#F04438"/>
<path d="M236.71 156V148.954H237.969V154.94H241.197V156H236.71ZM242.127 156V150.663H243.338V156H242.127ZM242.737 149.77C242.539 149.77 242.368 149.7 242.225 149.56C242.081 149.42 242.01 149.252 242.01 149.057C242.01 148.855 242.081 148.686 242.225 148.549C242.368 148.409 242.539 148.339 242.737 148.339C242.936 148.339 243.105 148.409 243.245 148.549C243.388 148.686 243.46 148.855 243.46 149.057C243.46 149.252 243.388 149.42 243.245 149.56C243.105 149.7 242.936 149.77 242.737 149.77ZM248.159 157.772V155.189H248.076C247.985 155.378 247.86 155.539 247.7 155.673C247.544 155.806 247.359 155.909 247.144 155.98C246.932 156.052 246.699 156.088 246.446 156.088C246 156.088 245.612 155.977 245.283 155.756C244.955 155.531 244.701 155.212 244.522 154.799C244.346 154.385 244.258 153.899 244.258 153.339V153.329C244.258 152.763 244.346 152.274 244.522 151.864C244.701 151.451 244.955 151.133 245.283 150.912C245.615 150.688 246.008 150.575 246.46 150.575C246.701 150.575 246.926 150.614 247.134 150.692C247.346 150.771 247.533 150.883 247.696 151.029C247.862 151.173 247.995 151.345 248.096 151.547H248.159V150.663H249.375V157.772H248.159ZM246.836 155.062C247.11 155.062 247.346 154.993 247.544 154.853C247.746 154.713 247.902 154.514 248.013 154.257C248.124 153.996 248.179 153.69 248.179 153.339V153.329C248.179 152.974 248.124 152.668 248.013 152.411C247.902 152.151 247.746 151.951 247.544 151.811C247.346 151.671 247.108 151.601 246.831 151.601C246.558 151.601 246.32 151.671 246.118 151.811C245.917 151.947 245.762 152.146 245.655 152.406C245.547 152.663 245.493 152.971 245.493 153.329V153.339C245.493 153.697 245.547 154.005 245.655 154.262C245.765 154.519 245.92 154.717 246.118 154.857C246.317 154.994 246.556 155.062 246.836 155.062ZM252.302 156.107C251.905 156.107 251.572 156.031 251.301 155.878C251.031 155.722 250.828 155.495 250.691 155.199C250.554 154.9 250.486 154.538 250.486 154.115V150.663H251.702V153.837C251.702 154.25 251.783 154.561 251.946 154.77C252.109 154.978 252.374 155.082 252.742 155.082C252.937 155.082 253.11 155.053 253.259 154.994C253.412 154.932 253.539 154.844 253.64 154.73C253.741 154.617 253.818 154.48 253.87 154.32C253.922 154.158 253.948 153.975 253.948 153.773V150.663H255.164V156H253.948V155.189H253.865C253.783 155.378 253.669 155.543 253.523 155.683C253.377 155.819 253.201 155.925 252.996 156C252.791 156.072 252.559 156.107 252.302 156.107ZM256.343 156V150.663H257.554V156H256.343ZM256.953 149.77C256.754 149.77 256.584 149.7 256.44 149.56C256.297 149.42 256.225 149.252 256.225 149.057C256.225 148.855 256.297 148.686 256.44 148.549C256.584 148.409 256.754 148.339 256.953 148.339C257.152 148.339 257.321 148.409 257.461 148.549C257.604 148.686 257.676 148.855 257.676 149.057C257.676 149.252 257.604 149.42 257.461 149.56C257.321 149.7 257.152 149.77 256.953 149.77ZM260.656 156.088C260.214 156.088 259.828 155.977 259.499 155.756C259.17 155.531 258.917 155.212 258.738 154.799C258.558 154.385 258.469 153.899 258.469 153.339V153.329C258.469 152.763 258.557 152.274 258.733 151.864C258.912 151.451 259.164 151.133 259.489 150.912C259.818 150.688 260.207 150.575 260.656 150.575C260.901 150.575 261.128 150.614 261.34 150.692C261.552 150.767 261.737 150.875 261.897 151.015C262.059 151.155 262.186 151.321 262.278 151.513H262.365V148.598H263.576V156H262.365V155.165H262.278C262.18 155.357 262.051 155.523 261.892 155.663C261.736 155.8 261.553 155.906 261.345 155.98C261.137 156.052 260.907 156.088 260.656 156.088ZM261.037 155.062C261.314 155.062 261.552 154.994 261.75 154.857C261.952 154.717 262.107 154.519 262.214 154.262C262.325 154.001 262.38 153.694 262.38 153.339V153.329C262.38 152.971 262.325 152.663 262.214 152.406C262.107 152.149 261.952 151.951 261.75 151.811C261.552 151.671 261.314 151.601 261.037 151.601C260.764 151.601 260.526 151.671 260.324 151.811C260.126 151.947 259.973 152.146 259.865 152.406C259.758 152.663 259.704 152.971 259.704 153.329V153.339C259.704 153.697 259.758 154.005 259.865 154.262C259.973 154.519 260.126 154.717 260.324 154.857C260.523 154.994 260.761 155.062 261.037 155.062ZM266.245 156.088C265.909 156.088 265.608 156.023 265.341 155.893C265.078 155.762 264.869 155.578 264.716 155.341C264.567 155.1 264.492 154.817 264.492 154.491V154.481C264.492 154.166 264.57 153.894 264.726 153.666C264.882 153.435 265.112 153.254 265.415 153.124C265.717 152.994 266.085 152.917 266.518 152.895L268.491 152.772V153.573L266.689 153.69C266.347 153.71 266.095 153.782 265.932 153.905C265.769 154.029 265.688 154.201 265.688 154.423V154.433C265.688 154.66 265.774 154.838 265.947 154.965C266.123 155.092 266.346 155.155 266.616 155.155C266.86 155.155 267.078 155.106 267.27 155.009C267.462 154.911 267.613 154.779 267.724 154.613C267.835 154.444 267.89 154.254 267.89 154.042V152.353C267.89 152.086 267.806 151.882 267.636 151.742C267.467 151.599 267.216 151.527 266.884 151.527C266.608 151.527 266.381 151.576 266.206 151.674C266.03 151.768 265.911 151.903 265.849 152.079L265.844 152.099H264.697L264.702 152.055C264.741 151.755 264.858 151.493 265.053 151.269C265.249 151.044 265.507 150.87 265.83 150.746C266.152 150.622 266.523 150.561 266.943 150.561C267.405 150.561 267.796 150.632 268.115 150.775C268.434 150.915 268.676 151.12 268.842 151.391C269.008 151.658 269.091 151.978 269.091 152.353V156H267.89V155.268H267.807C267.709 155.437 267.583 155.583 267.426 155.707C267.273 155.831 267.098 155.925 266.899 155.99C266.7 156.055 266.482 156.088 266.245 156.088ZM272.331 156.024C271.719 156.024 271.278 155.912 271.008 155.688C270.737 155.463 270.602 155.095 270.602 154.584V151.605H269.772V150.663H270.602V149.354H271.838V150.663H272.961V151.605H271.838V154.296C271.838 154.56 271.893 154.753 272.004 154.877C272.118 154.997 272.3 155.058 272.551 155.058C272.639 155.058 272.71 155.056 272.765 155.053C272.824 155.046 272.889 155.04 272.961 155.033V155.971C272.876 155.987 272.778 156 272.668 156.01C272.56 156.02 272.448 156.024 272.331 156.024ZM273.871 156V150.663H275.082V156H273.871ZM274.482 149.77C274.283 149.77 274.112 149.7 273.969 149.56C273.826 149.42 273.754 149.252 273.754 149.057C273.754 148.855 273.826 148.686 273.969 148.549C274.112 148.409 274.283 148.339 274.482 148.339C274.68 148.339 274.849 148.409 274.989 148.549C275.133 148.686 275.204 148.855 275.204 149.057C275.204 149.252 275.133 149.42 274.989 149.56C274.849 149.7 274.68 149.77 274.482 149.77ZM278.566 156.107C278.035 156.107 277.578 155.997 277.194 155.775C276.81 155.551 276.513 155.232 276.305 154.818C276.1 154.405 275.998 153.91 275.998 153.334V153.324C275.998 152.755 276.102 152.263 276.31 151.85C276.518 151.433 276.813 151.114 277.194 150.893C277.578 150.671 278.035 150.561 278.566 150.561C279.096 150.561 279.552 150.671 279.933 150.893C280.317 151.114 280.613 151.431 280.822 151.845C281.03 152.258 281.134 152.751 281.134 153.324V153.334C281.134 153.91 281.03 154.405 280.822 154.818C280.617 155.232 280.322 155.551 279.938 155.775C279.557 155.997 279.1 156.107 278.566 156.107ZM278.566 155.121C278.846 155.121 279.083 155.051 279.279 154.911C279.477 154.768 279.629 154.564 279.733 154.301C279.837 154.034 279.889 153.713 279.889 153.339V153.329C279.889 152.951 279.837 152.631 279.733 152.367C279.629 152.1 279.477 151.897 279.279 151.757C279.083 151.614 278.846 151.542 278.566 151.542C278.286 151.542 278.047 151.614 277.848 151.757C277.65 151.897 277.498 152.1 277.394 152.367C277.29 152.631 277.238 152.951 277.238 153.329V153.339C277.238 153.713 277.29 154.034 277.394 154.301C277.498 154.568 277.648 154.771 277.843 154.911C278.042 155.051 278.283 155.121 278.566 155.121ZM282.035 156V150.663H283.251V151.483H283.334C283.461 151.194 283.653 150.967 283.91 150.805C284.167 150.642 284.488 150.561 284.872 150.561C285.468 150.561 285.923 150.733 286.239 151.078C286.555 151.423 286.713 151.913 286.713 152.548V156H285.497V152.831C285.497 152.414 285.409 152.102 285.233 151.894C285.061 151.685 284.79 151.581 284.423 151.581C284.182 151.581 283.973 151.635 283.798 151.742C283.622 151.85 283.487 152.001 283.392 152.196C283.298 152.392 283.251 152.623 283.251 152.89V156H282.035ZM290.106 156V155.16L293.812 150.097V150.014H290.208V148.954H295.37V149.789L291.678 154.857V154.94H295.462V156H290.106ZM298.741 156.107C298.21 156.107 297.753 155.997 297.369 155.775C296.985 155.551 296.689 155.232 296.48 154.818C296.275 154.405 296.173 153.91 296.173 153.334V153.324C296.173 152.755 296.277 152.263 296.485 151.85C296.693 151.433 296.988 151.114 297.369 150.893C297.753 150.671 298.21 150.561 298.741 150.561C299.272 150.561 299.727 150.671 300.108 150.893C300.492 151.114 300.789 151.431 300.997 151.845C301.205 152.258 301.309 152.751 301.309 153.324V153.334C301.309 153.91 301.205 154.405 300.997 154.818C300.792 155.232 300.497 155.551 300.113 155.775C299.732 155.997 299.275 156.107 298.741 156.107ZM298.741 155.121C299.021 155.121 299.259 155.051 299.454 154.911C299.652 154.768 299.804 154.564 299.908 154.301C300.012 154.034 300.064 153.713 300.064 153.339V153.329C300.064 152.951 300.012 152.631 299.908 152.367C299.804 152.1 299.652 151.897 299.454 151.757C299.259 151.614 299.021 151.542 298.741 151.542C298.461 151.542 298.222 151.614 298.023 151.757C297.825 151.897 297.673 152.1 297.569 152.367C297.465 152.631 297.413 152.951 297.413 153.329V153.339C297.413 153.713 297.465 154.034 297.569 154.301C297.673 154.568 297.823 154.771 298.018 154.911C298.217 155.051 298.458 155.121 298.741 155.121ZM302.21 156V150.663H303.426V151.483H303.509C303.636 151.194 303.828 150.967 304.085 150.805C304.342 150.642 304.663 150.561 305.047 150.561C305.643 150.561 306.098 150.733 306.414 151.078C306.73 151.423 306.888 151.913 306.888 152.548V156H305.672V152.831C305.672 152.414 305.584 152.102 305.408 151.894C305.236 151.685 304.966 151.581 304.598 151.581C304.357 151.581 304.149 151.635 303.973 151.742C303.797 151.85 303.662 152.001 303.567 152.196C303.473 152.392 303.426 152.623 303.426 152.89V156H302.21ZM310.288 156.107C309.758 156.107 309.302 155.995 308.921 155.771C308.544 155.546 308.252 155.227 308.047 154.813C307.842 154.4 307.74 153.91 307.74 153.344V153.339C307.74 152.779 307.841 152.291 308.042 151.874C308.247 151.457 308.537 151.135 308.912 150.907C309.286 150.676 309.725 150.561 310.23 150.561C310.738 150.561 311.174 150.673 311.538 150.897C311.906 151.119 312.19 151.43 312.388 151.83C312.587 152.23 312.686 152.699 312.686 153.236V153.637H308.35V152.821H312.09L311.514 153.583V153.1C311.514 152.745 311.46 152.45 311.353 152.216C311.246 151.981 311.096 151.806 310.904 151.688C310.715 151.571 310.495 151.513 310.245 151.513C309.994 151.513 309.771 151.575 309.576 151.698C309.384 151.819 309.231 151.998 309.117 152.235C309.006 152.47 308.951 152.758 308.951 153.1V153.588C308.951 153.917 309.006 154.198 309.117 154.433C309.227 154.664 309.384 154.843 309.585 154.97C309.79 155.093 310.033 155.155 310.313 155.155C310.531 155.155 310.718 155.124 310.874 155.062C311.034 154.997 311.162 154.921 311.26 154.833C311.358 154.742 311.426 154.656 311.465 154.574L311.48 154.54H312.632L312.622 154.584C312.58 154.757 312.502 154.932 312.388 155.111C312.277 155.287 312.126 155.451 311.934 155.604C311.745 155.754 311.514 155.876 311.241 155.971C310.967 156.062 310.65 156.107 310.288 156.107Z" fill="white"/>
<path d="M19 196H98.4275C102.846 196 106.428 192.418 106.428 188V166.778C106.428 162.36 110.009 158.778 114.428 158.778H207.266C211.684 158.778 215.266 155.196 215.266 150.778V137C215.266 132.582 218.848 129 223.266 129H327" stroke="#8AC8FF" stroke-width="5" stroke-linecap="round"/>
<g clip-path="url(#clip0_10991_32671)">
<mask id="mask0_10991_32671" style="mask-type:luminance" maskUnits="userSpaceOnUse" x="240" y="46" width="67" height="67">
<path d="M240 46H307V113H240V46Z" fill="white"/>
</mask>
<g mask="url(#mask0_10991_32671)">
<path d="M307 46H240V113H307V46Z" fill="#F7931A"/>
<path d="M290.281 75.1227C290.976 70.4216 287.417 67.9147 282.512 66.2117L284.103 59.8747L280.228 58.9115L278.684 65.0923L275.594 64.3525L277.16 58.1271L273.288 57.1667L271.697 63.5262L269.237 62.9427V62.9204L263.886 61.5776L262.853 65.7176C262.853 65.7176 265.72 66.3932 265.672 66.4155C267.244 66.8175 267.512 67.8477 267.467 68.6517L265.675 75.9072L266.08 76.0412L265.653 75.9519L263.124 86.094C262.945 86.5658 262.451 87.2805 261.356 86.9873C261.398 87.0543 258.556 86.3173 258.556 86.3173L256.63 90.7282L261.669 91.9816L264.422 92.6991L262.811 99.1255L266.683 100.086L268.252 93.7292L271.362 94.5332L269.773 100.87L273.645 101.833L275.237 95.407C281.839 96.6605 286.811 96.1691 288.893 90.1894C290.574 85.3765 288.804 82.624 285.334 80.787C287.863 80.2287 289.767 78.5481 290.259 75.12L290.281 75.1227ZM281.437 87.5261C280.25 92.3417 272.146 89.7204 269.528 89.0922L271.655 80.5637C274.273 81.2337 282.693 82.5123 281.437 87.5038V87.5261ZM282.623 75.0557C281.549 79.4219 274.787 77.2053 272.615 76.6693L274.541 68.942C276.736 69.4808 283.765 70.5109 282.626 75.0557" fill="white"/>
</g>
</g>
<defs>
<clipPath id="clip0_10991_32671">
<path d="M240 79.5C240 60.9985 254.998 46 273.5 46C292.002 46 307 60.9985 307 79.5C307 98.0015 292.002 113 273.5 113C254.998 113 240 98.0015 240 79.5Z" fill="white"/>
</clipPath>
</defs>
</svg>
