<svg width="343" height="280" viewBox="0 0 343 280" fill="none" xmlns="http://www.w3.org/2000/svg">
<path d="M0 36C0 16.1178 16.1178 0 36 0H307C326.882 0 343 16.1178 343 36V244C343 263.882 326.882 280 307 280H36C16.1178 280 0 263.882 0 244V36Z" fill="#F5FAFF"/>
<rect x="20" y="223" width="301" height="5" rx="2.5" fill="#F04438"/>
<path d="M255.086 252.264C254.266 252.264 253.553 252.137 252.947 251.883C252.347 251.629 251.873 251.275 251.527 250.821C251.18 250.367 250.985 249.837 250.941 249.231L250.933 249.129H252.764L252.772 249.202C252.801 249.5 252.918 249.759 253.123 249.979C253.333 250.198 253.612 250.372 253.958 250.499C254.305 250.621 254.7 250.682 255.145 250.682C255.57 250.682 255.946 250.616 256.273 250.484C256.6 250.352 256.856 250.171 257.042 249.942C257.227 249.708 257.32 249.439 257.32 249.136V249.129C257.32 248.748 257.171 248.438 256.873 248.199C256.575 247.955 256.085 247.759 255.401 247.613L254.266 247.378C253.182 247.149 252.393 246.783 251.9 246.28C251.412 245.772 251.168 245.125 251.168 244.339V244.332C251.168 243.702 251.334 243.15 251.666 242.676C252.003 242.203 252.464 241.834 253.05 241.57C253.641 241.302 254.317 241.167 255.079 241.167C255.86 241.167 256.536 241.299 257.108 241.563C257.679 241.822 258.128 242.176 258.455 242.625C258.782 243.074 258.966 243.582 259.005 244.148L259.012 244.244H257.21L257.196 244.156C257.152 243.877 257.037 243.636 256.851 243.431C256.671 243.221 256.429 243.055 256.126 242.933C255.823 242.811 255.469 242.75 255.064 242.75C254.678 242.75 254.334 242.811 254.031 242.933C253.729 243.05 253.489 243.216 253.314 243.431C253.143 243.646 253.057 243.904 253.057 244.207V244.214C253.057 244.585 253.201 244.893 253.489 245.137C253.782 245.381 254.259 245.572 254.918 245.708L256.053 245.95C256.795 246.106 257.398 246.314 257.862 246.573C258.326 246.832 258.665 247.154 258.88 247.54C259.1 247.92 259.21 248.379 259.21 248.917V248.924C259.21 249.607 259.041 250.198 258.704 250.696C258.372 251.194 257.896 251.58 257.276 251.854C256.661 252.127 255.931 252.264 255.086 252.264ZM263.973 252.037C263.055 252.037 262.393 251.868 261.988 251.531C261.583 251.194 261.38 250.643 261.38 249.876V245.408H260.135V243.995H261.38V242.032H263.233V243.995H264.918V245.408H263.233V249.444C263.233 249.839 263.316 250.13 263.482 250.315C263.653 250.496 263.926 250.586 264.302 250.586C264.434 250.586 264.542 250.584 264.625 250.579C264.712 250.569 264.81 250.56 264.918 250.55V251.956C264.791 251.98 264.644 252 264.478 252.015C264.317 252.029 264.148 252.037 263.973 252.037ZM269.805 252.161C269.009 252.161 268.323 251.995 267.747 251.663C267.171 251.326 266.726 250.848 266.414 250.228C266.106 249.607 265.952 248.865 265.952 248.001V247.986C265.952 247.132 266.109 246.395 266.421 245.774C266.734 245.149 267.176 244.671 267.747 244.339C268.323 244.007 269.009 243.841 269.805 243.841C270.601 243.841 271.285 244.007 271.856 244.339C272.432 244.671 272.876 245.147 273.189 245.767C273.501 246.387 273.658 247.127 273.658 247.986V248.001C273.658 248.865 273.501 249.607 273.189 250.228C272.881 250.848 272.439 251.326 271.863 251.663C271.292 251.995 270.606 252.161 269.805 252.161ZM269.805 250.682C270.225 250.682 270.581 250.577 270.874 250.367C271.172 250.152 271.399 249.847 271.556 249.451C271.712 249.051 271.79 248.57 271.79 248.008V247.994C271.79 247.427 271.712 246.946 271.556 246.551C271.399 246.15 271.172 245.845 270.874 245.635C270.581 245.42 270.225 245.313 269.805 245.313C269.385 245.313 269.026 245.42 268.728 245.635C268.431 245.845 268.203 246.15 268.047 246.551C267.891 246.946 267.813 247.427 267.813 247.994V248.008C267.813 248.57 267.891 249.051 268.047 249.451C268.203 249.852 268.428 250.157 268.721 250.367C269.019 250.577 269.38 250.682 269.805 250.682ZM275.169 254.659V243.995H276.992V245.247H277.117C277.263 244.959 277.454 244.712 277.688 244.507C277.927 244.302 278.203 244.144 278.516 244.031C278.828 243.919 279.173 243.863 279.549 243.863C280.217 243.863 280.796 244.031 281.284 244.368C281.778 244.705 282.158 245.184 282.427 245.804C282.7 246.419 282.837 247.149 282.837 247.994V248.008C282.837 248.858 282.703 249.59 282.434 250.206C282.166 250.821 281.785 251.297 281.292 251.634C280.803 251.966 280.222 252.132 279.549 252.132C279.182 252.132 278.841 252.076 278.523 251.963C278.206 251.846 277.927 251.683 277.688 251.473C277.449 251.263 277.258 251.014 277.117 250.726H276.992V254.659H275.169ZM278.977 250.594C279.392 250.594 279.749 250.491 280.047 250.286C280.344 250.076 280.574 249.778 280.735 249.393C280.896 249.002 280.977 248.541 280.977 248.008V247.994C280.977 247.452 280.896 246.988 280.735 246.602C280.574 246.216 280.344 245.921 280.047 245.716C279.749 245.506 279.392 245.401 278.977 245.401C278.562 245.401 278.203 245.506 277.901 245.716C277.603 245.921 277.371 246.216 277.205 246.602C277.044 246.988 276.963 247.449 276.963 247.986V248.001C276.963 248.538 277.044 249.002 277.205 249.393C277.371 249.778 277.605 250.076 277.908 250.286C278.211 250.491 278.567 250.594 278.977 250.594ZM288.225 252V241.431H290.115V250.411H294.956V252H288.225ZM299.58 252.161C298.784 252.161 298.098 251.995 297.522 251.663C296.945 251.326 296.501 250.848 296.189 250.228C295.881 249.607 295.727 248.865 295.727 248.001V247.986C295.727 247.132 295.883 246.395 296.196 245.774C296.508 245.149 296.95 244.671 297.522 244.339C298.098 244.007 298.784 243.841 299.58 243.841C300.376 243.841 301.059 244.007 301.631 244.339C302.207 244.671 302.651 245.147 302.964 245.767C303.276 246.387 303.432 247.127 303.432 247.986V248.001C303.432 248.865 303.276 249.607 302.964 250.228C302.656 250.848 302.214 251.326 301.638 251.663C301.067 251.995 300.381 252.161 299.58 252.161ZM299.58 250.682C300 250.682 300.356 250.577 300.649 250.367C300.947 250.152 301.174 249.847 301.33 249.451C301.486 249.051 301.565 248.57 301.565 248.008V247.994C301.565 247.427 301.486 246.946 301.33 246.551C301.174 246.15 300.947 245.845 300.649 245.635C300.356 245.42 300 245.313 299.58 245.313C299.16 245.313 298.801 245.42 298.503 245.635C298.205 245.845 297.978 246.15 297.822 246.551C297.666 246.946 297.588 247.427 297.588 247.994V248.008C297.588 248.57 297.666 249.051 297.822 249.451C297.978 249.852 298.203 250.157 298.496 250.367C298.794 250.577 299.155 250.682 299.58 250.682ZM307.968 252.161C307.29 252.161 306.704 252.066 306.21 251.875C305.722 251.68 305.336 251.412 305.053 251.07C304.77 250.723 304.602 250.323 304.548 249.869V249.854H306.357L306.364 249.869C306.462 250.147 306.645 250.374 306.914 250.55C307.182 250.726 307.543 250.813 307.998 250.813C308.3 250.813 308.566 250.772 308.796 250.689C309.025 250.601 309.206 250.481 309.338 250.33C309.47 250.179 309.536 250.003 309.536 249.803V249.788C309.536 249.554 309.44 249.358 309.25 249.202C309.06 249.041 308.745 248.912 308.305 248.814L307.009 248.521C306.501 248.409 306.081 248.252 305.749 248.052C305.417 247.852 305.168 247.605 305.002 247.312C304.841 247.02 304.76 246.678 304.76 246.287V246.28C304.76 245.796 304.894 245.372 305.163 245.005C305.436 244.639 305.815 244.354 306.298 244.148C306.782 243.943 307.338 243.841 307.968 243.841C308.618 243.841 309.177 243.938 309.645 244.134C310.114 244.329 310.48 244.598 310.744 244.939C311.008 245.281 311.159 245.669 311.198 246.104V246.119H309.484L309.477 246.097C309.409 245.843 309.245 245.628 308.986 245.452C308.732 245.271 308.391 245.181 307.961 245.181C307.692 245.181 307.451 245.223 307.236 245.306C307.026 245.389 306.86 245.506 306.738 245.657C306.621 245.804 306.562 245.977 306.562 246.177V246.185C306.562 246.341 306.601 246.478 306.679 246.595C306.762 246.712 306.892 246.814 307.067 246.902C307.243 246.99 307.475 247.068 307.763 247.137L309.06 247.422C309.846 247.598 310.427 247.859 310.803 248.206C311.179 248.553 311.367 249.019 311.367 249.605V249.62C311.367 250.127 311.22 250.572 310.927 250.953C310.634 251.333 310.231 251.631 309.719 251.846C309.206 252.056 308.623 252.161 307.968 252.161ZM315.763 252.161C315.085 252.161 314.499 252.066 314.006 251.875C313.517 251.68 313.132 251.412 312.848 251.07C312.565 250.723 312.397 250.323 312.343 249.869V249.854H314.152L314.159 249.869C314.257 250.147 314.44 250.374 314.709 250.55C314.977 250.726 315.339 250.813 315.793 250.813C316.095 250.813 316.362 250.772 316.591 250.689C316.821 250.601 317.001 250.481 317.133 250.33C317.265 250.179 317.331 250.003 317.331 249.803V249.788C317.331 249.554 317.236 249.358 317.045 249.202C316.855 249.041 316.54 248.912 316.1 248.814L314.804 248.521C314.296 248.409 313.876 248.252 313.544 248.052C313.212 247.852 312.963 247.605 312.797 247.312C312.636 247.02 312.555 246.678 312.555 246.287V246.28C312.555 245.796 312.69 245.372 312.958 245.005C313.232 244.639 313.61 244.354 314.094 244.148C314.577 243.943 315.134 243.841 315.763 243.841C316.413 243.841 316.972 243.938 317.441 244.134C317.909 244.329 318.276 244.598 318.539 244.939C318.803 245.281 318.954 245.669 318.993 246.104V246.119H317.28L317.272 246.097C317.204 245.843 317.04 245.628 316.782 245.452C316.528 245.271 316.186 245.181 315.756 245.181C315.488 245.181 315.246 245.223 315.031 245.306C314.821 245.389 314.655 245.506 314.533 245.657C314.416 245.804 314.357 245.977 314.357 246.177V246.185C314.357 246.341 314.396 246.478 314.474 246.595C314.557 246.712 314.687 246.814 314.863 246.902C315.038 246.99 315.27 247.068 315.558 247.137L316.855 247.422C317.641 247.598 318.222 247.859 318.598 248.206C318.974 248.553 319.162 249.019 319.162 249.605V249.62C319.162 250.127 319.015 250.572 318.722 250.953C318.429 251.333 318.027 251.631 317.514 251.846C317.001 252.056 316.418 252.161 315.763 252.161Z" fill="#F04438"/>
<path d="M170.026 55V46.0205H166.774V44.4312H175.168V46.0205H171.916V55H170.026ZM177.375 55.1318C176.872 55.1318 176.42 55.0342 176.02 54.8389C175.624 54.6436 175.312 54.3677 175.082 54.0112C174.858 53.6499 174.745 53.2251 174.745 52.7368V52.7222C174.745 52.2485 174.863 51.8408 175.097 51.499C175.331 51.1523 175.676 50.8813 176.13 50.686C176.584 50.4907 177.135 50.376 177.785 50.3418L180.744 50.1587V51.3599L178.041 51.5356C177.529 51.5649 177.15 51.6724 176.906 51.8579C176.662 52.0435 176.54 52.3022 176.54 52.6343V52.6489C176.54 52.9907 176.669 53.2568 176.928 53.4473C177.192 53.6377 177.526 53.7329 177.931 53.7329C178.298 53.7329 178.625 53.6597 178.913 53.5132C179.201 53.3667 179.428 53.1689 179.594 52.9199C179.76 52.666 179.843 52.3804 179.843 52.063V49.5288C179.843 49.1284 179.716 48.8232 179.462 48.6133C179.208 48.3984 178.832 48.291 178.334 48.291C177.919 48.291 177.58 48.3643 177.316 48.5107C177.052 48.6523 176.874 48.855 176.781 49.1187L176.774 49.1479H175.053L175.06 49.082C175.119 48.6328 175.295 48.2397 175.588 47.9028C175.881 47.5659 176.269 47.3047 176.752 47.1191C177.236 46.9336 177.792 46.8408 178.422 46.8408C179.115 46.8408 179.701 46.9482 180.18 47.1631C180.658 47.373 181.022 47.6807 181.271 48.0859C181.52 48.4863 181.645 48.9673 181.645 49.5288V55H179.843V53.9014H179.718C179.572 54.1553 179.382 54.375 179.147 54.5605C178.918 54.7461 178.654 54.8877 178.356 54.9854C178.058 55.083 177.731 55.1318 177.375 55.1318ZM183.588 55V43.8965H185.412V55H183.588ZM188.62 55L185.924 51.3672L187.279 50.2539L190.81 55H188.62ZM185.258 52.3486L185.192 50.2832H185.536L188.488 46.9946H190.597L187.118 50.6494L186.283 51.3013L185.258 52.3486ZM194.884 55.1611C194.088 55.1611 193.405 54.9927 192.833 54.6558C192.267 54.3188 191.83 53.8403 191.522 53.2202C191.215 52.6001 191.061 51.8652 191.061 51.0156V51.0083C191.061 50.1685 191.212 49.436 191.515 48.811C191.823 48.186 192.257 47.7026 192.819 47.3608C193.38 47.0142 194.039 46.8408 194.796 46.8408C195.558 46.8408 196.212 47.0093 196.759 47.3462C197.311 47.6782 197.736 48.1445 198.034 48.7451C198.331 49.3457 198.48 50.0488 198.48 50.8545V51.4551H191.976V50.2319H197.587L196.723 51.3745V50.6494C196.723 50.1172 196.642 49.6753 196.481 49.3237C196.32 48.9722 196.095 48.7085 195.807 48.5327C195.524 48.3569 195.194 48.269 194.818 48.269C194.442 48.269 194.108 48.3618 193.815 48.5474C193.527 48.728 193.297 48.9966 193.126 49.353C192.96 49.7046 192.877 50.1367 192.877 50.6494V51.3818C192.877 51.875 192.96 52.2974 193.126 52.6489C193.292 52.9956 193.527 53.2642 193.829 53.4546C194.137 53.6401 194.501 53.7329 194.921 53.7329C195.248 53.7329 195.529 53.6865 195.763 53.5938C196.002 53.4961 196.195 53.3813 196.342 53.2495C196.488 53.1128 196.591 52.9834 196.649 52.8613L196.671 52.8101H198.4L198.385 52.876C198.322 53.1348 198.204 53.3984 198.034 53.667C197.868 53.9307 197.64 54.1772 197.352 54.4067C197.069 54.6313 196.723 54.8145 196.312 54.9561C195.902 55.0928 195.426 55.1611 194.884 55.1611ZM204.798 51.5063V49.9829H207.611C208.29 49.9829 208.817 49.8096 209.193 49.4629C209.569 49.1113 209.757 48.6182 209.757 47.9834V47.9688C209.757 47.3291 209.569 46.8359 209.193 46.4893C208.817 46.1426 208.29 45.9692 207.611 45.9692H204.798V44.4312H208.072C208.79 44.4312 209.417 44.5776 209.955 44.8706C210.492 45.1636 210.912 45.5762 211.214 46.1084C211.517 46.6357 211.668 47.2534 211.668 47.9614V47.9761C211.668 48.6792 211.517 49.2969 211.214 49.8291C210.912 50.3564 210.492 50.769 209.955 51.0669C209.417 51.3599 208.79 51.5063 208.072 51.5063H204.798ZM203.854 55V44.4312H205.743V55H203.854ZM213.245 55V46.9946H215.069V48.2251H215.194C215.33 47.7954 215.575 47.4609 215.926 47.2217C216.283 46.9824 216.724 46.8628 217.252 46.8628C217.388 46.8628 217.523 46.8726 217.655 46.8921C217.791 46.9067 217.904 46.9263 217.992 46.9507V48.584C217.845 48.5498 217.696 48.5254 217.545 48.5107C217.398 48.4912 217.244 48.4814 217.083 48.4814C216.678 48.4814 216.324 48.5571 216.021 48.7085C215.719 48.8599 215.484 49.0771 215.318 49.3604C215.152 49.6387 215.069 49.9683 215.069 50.3491V55H213.245ZM222.418 55.1611C221.622 55.1611 220.936 54.9951 220.36 54.6631C219.783 54.3262 219.339 53.8477 219.027 53.2275C218.719 52.6074 218.565 51.8652 218.565 51.001V50.9863C218.565 50.1318 218.721 49.3945 219.034 48.7744C219.346 48.1494 219.788 47.6709 220.36 47.3389C220.936 47.0068 221.622 46.8408 222.418 46.8408C223.214 46.8408 223.897 47.0068 224.468 47.3389C225.045 47.6709 225.489 48.147 225.801 48.7671C226.114 49.3872 226.27 50.127 226.27 50.9863V51.001C226.27 51.8652 226.114 52.6074 225.801 53.2275C225.494 53.8477 225.052 54.3262 224.476 54.6631C223.904 54.9951 223.218 55.1611 222.418 55.1611ZM222.418 53.6816C222.838 53.6816 223.194 53.5767 223.487 53.3667C223.785 53.1519 224.012 52.8467 224.168 52.4512C224.324 52.0508 224.402 51.5698 224.402 51.0083V50.9937C224.402 50.4272 224.324 49.9463 224.168 49.5508C224.012 49.1504 223.785 48.8452 223.487 48.6353C223.194 48.4204 222.838 48.313 222.418 48.313C221.998 48.313 221.639 48.4204 221.341 48.6353C221.043 48.8452 220.816 49.1504 220.66 49.5508C220.504 49.9463 220.425 50.4272 220.425 50.9937V51.0083C220.425 51.5698 220.504 52.0508 220.66 52.4512C220.816 52.8516 221.041 53.1567 221.334 53.3667C221.631 53.5767 221.993 53.6816 222.418 53.6816ZM228.367 55V48.4082H227.056V46.9946H228.367V46.2036C228.367 45.6665 228.457 45.2222 228.638 44.8706C228.824 44.519 229.109 44.2578 229.495 44.0869C229.881 43.9111 230.369 43.8232 230.96 43.8232C231.155 43.8232 231.336 43.8306 231.502 43.8452C231.668 43.855 231.822 43.8721 231.963 43.8965V45.1709C231.895 45.1611 231.807 45.1538 231.7 45.1489C231.592 45.1392 231.475 45.1343 231.348 45.1343C230.918 45.1343 230.613 45.2344 230.433 45.4346C230.252 45.6299 230.162 45.9204 230.162 46.3062V46.9946H231.897V48.4082H230.191V55H228.367ZM233.357 55V46.9946H235.174V55H233.357ZM234.273 45.6543C233.975 45.6543 233.719 45.5493 233.504 45.3394C233.289 45.1294 233.181 44.8779 233.181 44.585C233.181 44.2822 233.289 44.0283 233.504 43.8232C233.719 43.6133 233.975 43.5083 234.273 43.5083C234.571 43.5083 234.824 43.6133 235.034 43.8232C235.249 44.0283 235.357 44.2822 235.357 44.585C235.357 44.8779 235.249 45.1294 235.034 45.3394C234.824 45.5493 234.571 45.6543 234.273 45.6543ZM240.252 55.0366C239.334 55.0366 238.672 54.8682 238.267 54.5312C237.861 54.1943 237.659 53.6426 237.659 52.876V48.4082H236.414V46.9946H237.659V45.0317H239.512V46.9946H241.196V48.4082H239.512V52.4438C239.512 52.8394 239.595 53.1299 239.761 53.3154C239.932 53.4961 240.205 53.5864 240.581 53.5864C240.713 53.5864 240.82 53.584 240.903 53.5791C240.991 53.5693 241.089 53.5596 241.196 53.5498V54.9561C241.069 54.9805 240.923 55 240.757 55.0146C240.596 55.0293 240.427 55.0366 240.252 55.0366Z" fill="#12B76A"/>
<path d="M21 187.263C26.814 175.065 46.814 156.943 80.3023 182.035C122.163 213.401 141.349 157.64 172.744 103.622C204.14 49.6038 237.279 89.6818 259.953 143.7C277.104 184.557 304.96 195.405 318.757 195.976H321C320.302 196.007 319.553 196.009 318.757 195.976H21V187.263Z" fill="url(#paint0_linear_10991_32845)"/>
<path d="M21 187.263C26.814 175.065 46.814 156.943 80.3023 182.035C122.163 213.401 141.349 157.64 172.744 103.622C204.14 49.6038 237.279 89.6818 259.953 143.7C278.093 186.914 308.209 196.557 321 195.976" stroke="url(#paint1_linear_10991_32845)" stroke-width="3" stroke-linecap="round"/>
<circle cx="204" cy="78" r="8.5" fill="white" stroke="#12B76A" stroke-width="5"/>
<defs>
<linearGradient id="paint0_linear_10991_32845" x1="171" y1="78" x2="171" y2="196" gradientUnits="userSpaceOnUse">
<stop stop-color="#12B76A" stop-opacity="0.2"/>
<stop offset="1" stop-color="#12B76A" stop-opacity="0"/>
</linearGradient>
<linearGradient id="paint1_linear_10991_32845" x1="327.5" y1="148" x2="21" y2="137" gradientUnits="userSpaceOnUse">
<stop stop-color="#12B76A" stop-opacity="0"/>
<stop offset="0.192308" stop-color="#12B76A"/>
<stop offset="0.449443" stop-color="#12B76A"/>
<stop offset="0.754808" stop-color="#12B76A"/>
<stop offset="1" stop-color="#12B76A" stop-opacity="0"/>
</linearGradient>
</defs>
</svg>
