<svg width="24" height="24" viewBox="0 0 24 24" fill="none" xmlns="http://www.w3.org/2000/svg">
<path d="M18.9999 6H17.9999V4C17.9999 3.45 17.5499 3 16.9999 3C16.4499 3 15.9999 3.45 15.9999 4V6H14.9999C13.8999 6 12.9999 6.9 12.9999 8V16C12.9999 17.1 13.8999 18 14.9999 18H15.9999V20C15.9999 20.55 16.4499 21 16.9999 21C17.5499 21 17.9999 20.55 17.9999 20V18H18.9999C20.0999 18 20.9999 17.1 20.9999 16V8C20.9999 6.9 20.0999 6 18.9999 6ZM14.9999 16V8H18.9999V16H14.9999Z" fill="#414651"/>
<path d="M9 10H8V4C8 3.45 7.55 3 7 3C6.45 3 6 3.45 6 4V10H5C3.9 10 3 10.9 3 12V16C3 17.1 3.9 18 5 18H6V20C6 20.55 6.45 21 7 21C7.55 21 8 20.55 8 20V18H9C10.1 18 11 17.1 11 16V12C11 10.9 10.1 10 9 10ZM5 16V12H9V16H5Z" fill="#414651"/>
</svg>
