<svg width="40" height="40" viewBox="0 0 40 40" fill="none" xmlns="http://www.w3.org/2000/svg">
<path fill-rule="evenodd" clip-rule="evenodd" d="M19.7778 37.5556C29.6346 37.5556 37.5556 29.6346 37.5556 19.7778C37.5556 9.92105 29.6346 2.00006 19.7778 2.00006C9.92099 2.00006 2 9.92105 2 19.7778C2 29.6346 9.92099 37.5556 19.7778 37.5556ZM24.6667 22.5867C24.6667 19.9991 23.1121 19.1102 20.001 18.7428C17.7788 18.4425 17.3343 17.8539 17.3343 16.8109C17.3343 15.7778 18.079 15.1122 19.5565 15.1122C20.8899 15.1122 21.6346 15.5546 22 16.6667C22.079 16.888 22.3002 17.0322 22.5235 17.0322H23.7007C23.769 17.0343 23.8369 17.0226 23.9005 16.9978C23.9641 16.9729 24.022 16.9355 24.0707 16.8877C24.1194 16.8399 24.158 16.7827 24.184 16.7196C24.2101 16.6565 24.2231 16.5888 24.2222 16.5206V16.4435C23.922 14.8099 22.5886 13.2554 20.8899 13.1112V11.4776C20.8899 11.1773 20.6667 10.9541 20.3012 10.8889H19.3235C19.0232 10.8889 18.7447 11.1102 18.6677 11.4776V13.1112C16.4454 13.4094 14.9679 15.1102 14.9679 16.965C14.9679 19.4104 16.4454 20.3665 19.5565 20.7438C21.6346 21.1092 22.3022 21.5536 22.3022 22.7428C22.3022 23.922 21.2553 24.7438 19.8568 24.7438C17.921 24.7438 17.2573 23.922 17.0341 22.8099C16.9669 22.5215 16.7457 22.3655 16.5225 22.3655H15.2563C15.188 22.3647 15.1203 22.3777 15.0572 22.4037C14.9941 22.4297 14.937 22.4683 14.8892 22.517C14.8413 22.5657 14.8039 22.6236 14.7791 22.6872C14.7542 22.7508 14.7426 22.8187 14.7447 22.887V22.966C15.0331 24.8109 16.2222 26.0771 18.6677 26.4425V28.088C18.6677 28.3882 18.8889 28.5877 19.2563 28.6667H20.323C20.6114 28.6667 20.8128 28.4652 20.8899 28.088V26.4425C23.1121 26.0771 24.6667 24.5877 24.6667 22.5867ZM12.2973 28.1235C13.3721 29.1075 14.6308 29.8694 16.001 30.3655C16.2222 30.5215 16.4454 30.8099 16.4454 31.0331V32.0761C16.4454 32.2203 16.4454 32.2993 16.3664 32.3645C16.3012 32.6648 16.001 32.8089 15.7007 32.6648C13.0057 31.8055 10.6537 30.1115 8.98469 27.8276C7.3157 25.5437 6.4162 22.7883 6.4162 19.9596C6.4162 17.1308 7.3157 14.3754 8.98469 12.0915C10.6537 9.80764 13.0057 8.11364 15.7007 7.25438C15.7798 7.18722 15.922 7.18722 16.001 7.18722C16.3012 7.25438 16.4454 7.47759 16.4454 7.77586V8.81093C16.4454 9.18623 16.3012 9.40944 16.001 9.55364C14.486 10.1005 13.1101 10.9745 11.9711 12.1134C10.8322 13.2523 9.95822 14.6283 9.41136 16.1433C8.64697 18.2007 8.51307 20.4392 9.02674 22.5731C9.54042 24.707 10.6784 26.6393 12.2953 28.1235M23.1872 7.55463C23.2543 7.25438 23.5546 7.11018 23.8548 7.25438C25.8918 7.91561 27.7411 9.0543 29.2485 10.5755C30.7559 12.0967 31.8778 13.9562 32.5205 15.9991C34.7427 23.0312 30.8869 30.5215 23.8548 32.7438C23.7758 32.8089 23.6316 32.8089 23.5546 32.8089C23.2543 32.7438 23.1101 32.5206 23.1101 32.2203V31.1872C23.1101 30.8099 23.2543 30.5887 23.5546 30.4425C25.069 29.8956 26.4444 29.0218 27.583 27.8833C28.7215 26.7447 29.5953 25.3693 30.1422 23.8549C30.6505 22.489 30.8831 21.036 30.8267 19.5798C30.7702 18.1235 30.4257 16.6929 29.8132 15.3705C29.2007 14.0481 28.3322 12.8602 27.258 11.8753C26.1838 10.8905 24.9251 10.1283 23.5546 9.63265C23.3314 9.4766 23.1101 9.18821 23.1101 8.88796V7.85488C23.1101 7.69883 23.1101 7.63167 23.1891 7.55463" fill="#2775CA"/>
<path d="M27.3333 31.852C27.3333 28.5383 30.0195 25.852 33.3333 25.852C36.647 25.852 39.3333 28.5383 39.3333 31.852C39.3333 35.1657 36.647 37.852 33.3333 37.852C30.0195 37.852 27.3333 35.1657 27.3333 31.852Z" fill="black"/>
<g clip-path="url(#clip0_14709_55745)">
<path d="M37.2333 31.8356C37.2333 34.4143 35.6553 35.2417 34.8238 34.5049C34.1394 33.9042 33.9357 32.6347 32.9063 32.5043C31.5997 32.34 31.4866 34.0799 30.6268 34.0799C29.6257 34.0799 29.4333 32.6233 29.4333 31.8752C29.4333 31.1101 29.6483 30.0673 30.5024 30.0673C31.4979 30.0673 31.5545 31.5578 32.7988 31.4785C34.0376 31.3935 34.0602 29.8406 34.8634 29.1775C35.5647 28.6051 37.2333 29.2228 37.2333 31.8356Z" fill="#97FCE4"/>
</g>
<defs>
<clipPath id="clip0_14709_55745">
<rect width="7.8" height="7.8" fill="white" transform="translate(29.4334 27.9518)"/>
</clipPath>
</defs>
</svg>
